<svg xmlns="http://www.w3.org/2000/svg" viewBox="0 0 20 20"><title>logo_upc</title><path d="M0,10.536V9.5c.015-.141.032-.281.046-.422A9.966,9.966,0,0,1,1.9,4.148,9.807,9.807,0,0,1,3.78,2.181a.446.446,0,0,1,.167-.043c-.016.052-.029.105-.049.156a.249.249,0,0,1-.044.056A7.8,7.8,0,0,0,2.113,6.868a7.65,7.65,0,0,0,1.778,5.446,7.777,7.777,0,0,0,5.912,2.9c.1,0,.189.014.254-.1a3.667,3.667,0,0,0,.428-2.292,3.906,3.906,0,0,0-1.475-2.56A5.987,5.987,0,0,1,6.735,4.868,5.98,5.98,0,0,1,9.722.135c.07-.043.138-.09.207-.135H10a.684.684,0,0,1-.036.225,3.7,3.7,0,0,0-.4,2.6,4,4,0,0,0,1.448,2.306,6.008,6.008,0,0,1,2.217,5.7,5.958,5.958,0,0,1-2.686,4.239c-.044.03-.088.062-.132.094l.022.058c.4-.06.8-.1,1.193-.183a7.9,7.9,0,0,0,5.968-9.908,8.153,8.153,0,0,0-1.477-2.826.506.506,0,0,1-.051-.181.557.557,0,0,1,.168.065c.24.2.485.4.71.624a9.848,9.848,0,0,1,2.951,5.8c.041.293.071.588.106.882v1.036a1.06,1.06,0,0,0-.034.155,9.662,9.662,0,0,1-1.932,5.245,9.821,9.821,0,0,1-6.653,3.958c-.281.041-.564.071-.845.106H9.464c-.241-.028-.482-.051-.723-.083a9.825,9.825,0,0,1-5.33-2.407A9.815,9.815,0,0,1,.106,11.382C.066,11.1.035,10.818,0,10.536Z"/></svg>