<svg xmlns="http://www.w3.org/2000/svg" viewBox="0 0 20 20"><title>svg_odontologia</title><path d="M15.516,10.126a1.859,1.859,0,0,1-.62-.11c-.794,6.252-3.3,8.447-3.327,8.472l-.052.049a1.317,1.317,0,0,1-.6.394.5.5,0,0,1-.5-.5c0-.033.047-.4.047-.4a11.975,11.975,0,0,0-.322-5.521A2.028,2.028,0,0,0,8.25,11.153h-.2a2.028,2.028,0,0,0-1.893,1.352,11.975,11.975,0,0,0-.321,5.525s.047.368.047.4a.5.5,0,0,1-.5.5,1.317,1.317,0,0,1-.6-.393l-.053-.05c-.039-.032-3.9-3.339-3.544-13.8a2.585,2.585,0,0,1,2.5-2.636c.209-.014.411-.021.6-.021a5.365,5.365,0,0,1,1.973.339l.225.083a5.112,5.112,0,0,1,1.9,1.913.534.534,0,1,0,.891-.59,9.705,9.705,0,0,0-.721-.962,5.67,5.67,0,0,0,1.236-.349,5.593,5.593,0,0,1,2.231-.434h.066l.694-.378.334-.613a3.786,3.786,0,0,0-.423-.055c-.232-.016-.458-.024-.671-.024a6.578,6.578,0,0,0-2.605.5,4.051,4.051,0,0,1-1.264.319,4.048,4.048,0,0,1-1.263-.319,6.57,6.57,0,0,0-2.605-.5c-.213,0-.439.008-.671.024A3.666,3.666,0,0,0,.113,4.678c-.361,10.6,3.494,14.253,3.9,14.61A2.159,2.159,0,0,0,5.378,20a1.57,1.57,0,0,0,1.568-1.568,1.549,1.549,0,0,0-.03-.3l-.024-.216a11.167,11.167,0,0,1,.248-5,.963.963,0,0,1,.9-.69h.2a.963.963,0,0,1,.9.69,11.169,11.169,0,0,1,.248,5s-.054.42-.054.521A1.57,1.57,0,0,0,10.916,20a2.161,2.161,0,0,0,1.362-.712c.331-.289,2.907-2.727,3.7-9.221a1.85,1.85,0,0,1-.459.06Zm4.117-6.2L17.271,2.64,15.985.278a.534.534,0,0,0-.938,0L13.761,2.64,11.4,3.926a.534.534,0,0,0,0,.939l2.361,1.287,1.286,2.361a.535.535,0,0,0,.938,0l1.286-2.361,2.361-1.287a.534.534,0,0,0,0-.939ZM16.622,5.288a.537.537,0,0,0-.214.214L15.516,7.14,14.624,5.5a.53.53,0,0,0-.214-.214L12.772,4.4,14.41,3.5a.533.533,0,0,0,.214-.214l.892-1.638.892,1.638a.535.535,0,0,0,.214.214L18.26,4.4Z"/></svg>