<svg viewBox="0 0 20 20" xmlns="http://www.w3.org/2000/svg"><path d="m14.5 4.616a2.353 2.353 0 1 0 -1.412-1.116 2.348 2.348 0 0 0  1.412 1.116zm-.562-2.607a1.256 1.256 0 1 1  .863 1.55 1.255 1.255 0 0 1 -.863-1.55zm5.48 7.422a1.833 1.833 0 0 0 -1.818-1.684c-.049 0-.1 0-.162.008l-1.814.2-1.49-2.587a2.968 2.968 0 0 0 -1.017-1.053l-.1-.058a1.061 1.061 0 0 0 -.137-.06 1.739 1.739 0 0 0 -.187-.086l-3.357-1.488-.027-.011a1.877 1.877 0 0 0 -1.9.375l-2.657 2.436a1.825 1.825 0 0 0 -.069 2.577 1.834 1.834 0 0 0  1.325.569 1.807 1.807 0 0 0  1.247-.489l1.784-1.619.526.277c-1.032 1.368-2.1 2.8-2.107 2.8l-.216.291-.285.417-1.179 1.588-3.313-.146h-.054a1.825 1.825 0 0 0 -.088 3.649l4.277.189h.068a1.833 1.833 0 0 0 1.465-.737l1.177-1.589 2.147 1.6-.145 3.3a1.832 1.832 0 0 0 1.76 1.9h.065a1.822 1.822 0 0 0 1.823-1.745l.188-4.264a1.823 1.823 0 0 0 -.735-1.547l-2.486-1.634.606-.8.512.785a1.8 1.8 0 0 0 1.572.9h0c .048 0 .1 0 .158-.007l2.964-.3a1.829 1.829 0 0 0 1.679-1.956zm-1.776.867-2.964.3h-.06 0a .716.716 0 0 1 -.627-.367l-1.391-2.131-2.256 2.987 3.424 2.252a.727.727 0 0 1  .282.608l-.188 4.264a.725.725 0 0 1 -.722.695h-.033a.729.729 0 0 1 -.7-.758l.171-3.878-3.5-2.6-1.828 2.464a.724.724 0 0 1 -.57.294l-4.31-.189a.727.727 0 0 1  .03-1.453l3.912.171 1.828-2.457.29-.423c.322-.43 1.445-1.925 2.4-3.191l.39-.516-2.35-1.239-2.362 2.144a.748.748 0 0 1 -1.027-.027.727.727 0 0 1  .019-1.021l2.659-2.437a.75.75 0 0 1  .747-.156l3.358 1.487.028.011a.657.657 0 0 1  .094.045l.124.054a1.972 1.972 0 0 1  .642.629l1.88 3.259 2.512-.271a.727.727 0 1 1  .1 1.45z"/></svg>