<svg viewBox="0 0 20 20" xmlns="http://www.w3.org/2000/svg"><path d="m11.209 15.131a.4.4 0 0 1  .028.377l-.877 1.943a.395.395 0 1 1 -.72-.325l.626-1.386h-1.143a.395.395 0 0 1 -.36-.557l.877-1.943a.395.395 0 1 1  .72.325l-.626 1.386h1.143a.4.4 0 0 1  .332.18zm8.177-6.282v6.151a.4.4 0 0 1 -.395.395h-4.846a4.145 4.145 0 0 1 -8.289 0h-4.847a.4.4 0 0 1 -.395-.395v-6.151a1.009 1.009 0 0 1 0-1.856v-4.081a.4.4 0 0 1  .395-.395h2.98a.395.395 0 0 1 0 .789h-2.589v3.687a1.009 1.009 0 0 1 0 1.856v5.758h4.521a4.154 4.154 0 0 1 3.684-3.388v-2.9h-1.628a1.009 1.009 0 1 1 0-.789h1.628v-4.223h-2.584a.4.4 0 0 1 -.312-.153l-1.554-2.009a.395.395 0 1 1  .625-.483l1.434 1.855h5.571l1.435-1.855a.395.395 0 0 1  .625.483l-1.553 2.009a.4.4 0 0 1 -.312.153h-2.585v4.219h1.628a1.009 1.009 0 1 1 0 .789h-1.628v2.9a4.154 4.154 0 0 1 3.684 3.388h4.521v-5.754a1.009 1.009 0 0 1 0-1.856v-3.686h-2.588a.395.395 0 0 1 0-.789h2.979a.4.4 0 0 1  .395.395v4.08a1.009 1.009 0 0 1 0 1.856zm-6.03 6.5a3.356 3.356 0 1 0 -3.356 3.351 3.36 3.36 0 0 0  3.356-3.354z"/></svg>