<svg xmlns="http://www.w3.org/2000/svg" viewBox="0 0 20 20"><title>svg_diseño_profesional</title><path d="M19.667,17.986H19V10.51a.333.333,0,0,0-.333-.333H12.194L7.225,5.208a.333.333,0,0,0-.471,0L1.792,10.17a.333.333,0,0,0-.1.235v7.58H1.028a.333.333,0,0,0,0,.666H19.667a.333.333,0,0,0,0-.666Zm-11.346,0H5.658v-4.66a1.331,1.331,0,1,1,2.663,0ZM6.99,11.329a2,2,0,0,0-2,2v4.66H2.36V10.543l4.63-4.63,4.831,4.831a.333.333,0,0,0,.235.1h6.28v7.143H8.987v-4.66A2,2,0,0,0,6.99,11.329Z"/><path d="M10.015,16.458h3a.25.25,0,0,0,.25-.25v-1a.25.25,0,0,0-.25-.25h-.083V12.88a.25.25,0,0,0-.25-.25h-2.33a.25.25,0,0,0-.25.25v2.08h-.083a.25.25,0,0,0-.25.25v1A.25.25,0,0,0,10.015,16.458Zm2.746-.5h-2.5v-.5h2.5Zm-.333-2.829V14.96H10.6V13.129Z"/><path d="M14.342,16.458h3a.25.25,0,0,0,.25-.25v-1a.25.25,0,0,0-.25-.25h-.083V12.88a.25.25,0,0,0-.25-.25h-2.33a.25.25,0,0,0-.25.25v2.08h-.083a.25.25,0,0,0-.25.25v1A.25.25,0,0,0,14.342,16.458Zm2.746-.5h-2.5v-.5h2.5Zm-.333-2.829V14.96H14.924V13.129Z"/><path d="M1.745,9.746a.333.333,0,0,0,0-.471L.8,8.334,6.99,2.148l3.6,3.6,2.338,2.338a.338.338,0,0,0,.236.1h6.163V9.511a.333.333,0,1,0,.666,0V7.847a.333.333,0,0,0-.1-.236L17.552,5.274a.333.333,0,0,0-.235-.1H10.96L7.225,1.442a.343.343,0,0,0-.471,0L.1,8.1a.333.333,0,0,0,0,.471L1.274,9.746A.333.333,0,0,0,1.745,9.746ZM18.852,7.514H13.3L11.625,5.842h5.554Z"/></svg>