<svg viewBox="0 0 20 20" xmlns="http://www.w3.org/2000/svg"><path d="m10.59 6.317a2.3 2.3 0 0 1 -1.179 0v10.26h-3.935v1.179h9.049v-1.179h-3.935z"/><path d="m6.755 4.615h1.588a1.763 1.763 0 0 0 3.315 0h1.587a.59.59 0 0 0  .132-.015l4.376-1-.264-1.149-4.31.989h-1.51a1.764 1.764 0 0 0 -3.337 0h-1.51l-4.31-.993-.264 1.153 4.376 1a .587.587 0 0 0  .131.015zm3.245-1.192a.587.587 0 1 1 -.587.587.588.588 0 0 1  .587-.587z"/><path d="m7.322 11.47a.594.594 0 0 0 -.059-.259l-3.107-6.373a.589.589 0 0 0 -.53-.331h0a .589.589 0 0 0 -.53.336l-3.039 6.374a.59.59 0 0 0 -.057.253 3.362 3.362 0 0 0  3.661 3.256 3.362 3.362 0 0 0  3.661-3.256zm-3.69-5.016 2.158 4.427h-4.267zm.029 7.092a2.335 2.335 0 0 1 -2.4-1.487h4.803a2.335 2.335 0 0 1 -2.403 1.488z"/><path d="m19.943 11.217-3.037-6.374a.589.589 0 0 0 -.53-.336h0a .589.589 0 0 0 -.53.331l-3.107 6.373a.59.59 0 0 0 -.06.259 3.362 3.362 0 0 0  3.661 3.256 3.362 3.362 0 0 0  3.66-3.256.59.59 0 0 0 -.057-.253zm-3.575-4.763 2.109 4.426h-4.267zm-.029 7.092a2.335 2.335 0 0 1 -2.4-1.487h4.805a2.335 2.335 0 0 1 -2.405 1.488z"/></svg>