<svg viewBox="0 0 20 20" xmlns="http://www.w3.org/2000/svg"><path d="m9.583 2.863v.837a2.432 2.432 0 0 0 -2.13 1.422l-.741-.383a3.292 3.292 0 0 1 2.871-1.876zm-7.87 3.625.741.382a2.432 2.432 0 0 1 2.13-1.422v-.833a3.291 3.291 0 0 0 -2.871 1.873zm18.287.64a4.3 4.3 0 0 1 -3.333 4.072v5.881c0 1.479-4.06 1.874-6.458 1.874s-6.459-.391-6.459-1.87v-5.685a4.334 4.334 0 0 1 -3.75-4.175 4.4 4.4 0 0 1  4.531-4.245 4.766 4.766 0 0 1  1.2.155 4.559 4.559 0 0 1  3.9-2.094 4.576 4.576 0 0 1  3.98 2.215 4.782 4.782 0 0 1  1.853-.374 4.4 4.4 0 0 1  4.536 4.246zm-.833 0a3.568 3.568 0 0 0 -3.7-3.412 3.932 3.932 0 0 0 -1.843.457l-.393.209-.183-.406a3.706 3.706 0 0 0 -3.415-2.1 3.753 3.753 0 0 0 -3.333 1.944l-.164.317-.336-.114a3.969 3.969 0 0 0 -1.267-.21 3.567 3.567 0 0 0 -3.7 3.411 3.567 3.567 0 0 0  3.7 3.411 3.9 3.9 0 0 0  1.7-.385l.36.751a4.72 4.72 0 0 1 -2.008.464v5.618c.128.354 2.174 1.04 5.625 1.04s5.5-.686 5.627-1.054v-5.733c-.122.009-.24.035-.365.035a4.763 4.763 0 0 1 -.846-.076 3.712 3.712 0 0 1 -2.54.994h-1.25v-.833h1.25a2.89 2.89 0 0 0 2.1-.9l.164-.171.23.053a3.958 3.958 0 0 0  .886.1 3.567 3.567 0 0 0  3.701-3.41z"/></svg>