<svg viewBox="0 0 20 20" xmlns="http://www.w3.org/2000/svg"><path d="m10.034 18.9-.2-.024c-4.741-.565-8.117-4.042-9.764-10.053l-.07-.256.2-.175a15.4 15.4 0 0 1 5.22-2.858l.264.8a14.767 14.767 0 0 0 -4.726 2.523c1.548 5.406 4.573 8.564 8.769 9.153a3.837 3.837 0 0 0  .878-1.4l.8.277a4.833 4.833 0 0 1 -1.226 1.874zm-4.466-5.664c.739-.252 1.371-.837 1.409-1.3l-.836-.108a1.557 1.557 0 0 1 -.847.611 1.207 1.207 0 0 1 -1.013.006v0l-.8.274a1.165 1.165 0 0 0 1.208.668 2.757 2.757 0 0 0  .879-.151zm7.779 3.89c5.154-2.48 7.061-6.641 6.582-14.362l-.017-.264-.246-.1a18.3 18.3 0 0 0 -6.506-1.3 18.292 18.292 0 0 0 -6.5 1.3l-.246.1-.014.264c-.48 7.721 1.426 11.882 6.58 14.362l.183.088zm-.187-15.181a17.474 17.474 0 0 1 5.94 1.139c.39 7.052-1.343 10.9-5.937 13.19-4.593-2.287-6.325-6.137-5.936-13.19a17.464 17.464 0 0 1 5.933-1.139zm3.34 9.668a.583.583 0 0 0 -.04-.654l-.22-.2-.261.1a9.283 9.283 0 0 1 -2.8.4 9.324 9.324 0 0 1 -2.823-.4l-.289-.095-.192.2a.584.584 0 0 0 -.039.654c.3.693 1.64 2.595 3.334 2.595s3.03-1.907 3.33-2.6zm-3.325.481a13.286 13.286 0 0 0 2.183-.2 3.158 3.158 0 0 1 -2.192 1.472 3.158 3.158 0 0 1 -2.193-1.472 13.469 13.469 0 0 0  2.2.2zm2.525-5.494a1.909 1.909 0 0 0 -2.114 1.691h.846c0-.407.485-.846 1.269-.846a2.059 2.059 0 0 1 1.691.846h.846c0-.825-1.304-1.691-2.538-1.691zm-5.074.846c.783 0 1.269.439 1.269.846h.846a1.909 1.909 0 0 0 -2.115-1.692c-1.233 0-2.537.869-2.537 1.691h.846a2.048 2.048 0 0 1 1.691-.849z"/></svg>