<svg viewBox="0 0 20 20" xmlns="http://www.w3.org/2000/svg"><path d="m18.462 11.155h-1.154v-1.54a1.925 1.925 0 0 0 -1.923-1.923h-5v-2.307h2.692a1.155 1.155 0 0 0 1.154-1.154v-3.077a1.155 1.155 0 0 0 -1.154-1.154h-6.154a1.155 1.155 0 0 0 -1.154 1.154v3.077a1.155 1.155 0 0 0 1.154 1.154h2.692v2.307h-5a1.925 1.925 0 0 0 -1.923 1.923v1.54h-1.154a1.155 1.155 0 0 0 -1.153 1.154v3.077a1.155 1.155 0 0 0 1.153 1.154h1.154v1.537a1.925 1.925 0 0 0 1.923 1.923h3.847a1.925 1.925 0 0 0 1.923-1.923v-1.537h1.154a1.155 1.155 0 0 0 1.154-1.154v-3.077a1.155 1.155 0 0 0 -1.154-1.154h-1.154v-2.693h5a1.155 1.155 0 0 1 1.154 1.154v1.54h-1.154a1.155 1.155 0 0 0 -1.154 1.154v3.077a1.155 1.155 0 0 0 1.154 1.154h3.077a1.155 1.155 0 0 0 1.154-1.154v-3.078a1.155 1.155 0 0 0 -1.154-1.154zm-16.924 4.615a.385.385 0 0 1 -.385-.385v-3.076a.385.385 0 0 1  .385-.385h3.077a.385.385 0 0 1  .385.385v3.077a.385.385 0 0 1 -.385.385zm8.077 2.307a1.155 1.155 0 0 1 -1.154 1.154h-3.846a1.155 1.155 0 0 1 -1.154-1.154v-1.537h1.154a1.155 1.155 0 0 0 1.154-1.154v-3.077a1.155 1.155 0 0 0 -1.154-1.154h-1.153v-1.54a1.155 1.155 0 0 1 1.153-1.153h5v2.693h-1.153a1.155 1.155 0 0 0 -1.154 1.154v3.077a1.155 1.155 0 0 0 1.154 1.154h1.153zm1.923-6.153a.385.385 0 0 1  .385.385v3.077a.385.385 0 0 1 -.385.385h-3.076a.385.385 0 0 1 -.385-.385v-3.077a.385.385 0 0 1  .385-.385zm-4.615-7.309a.385.385 0 0 1 -.385-.385v-3.076a.385.385 0 0 1  .385-.385h6.154a.385.385 0 0 1  .385.385v3.077a.385.385 0 0 1 -.385.385zm11.923 10.77a.385.385 0 0 1 -.385.385h-3.076a.385.385 0 0 1 -.385-.384v-3.077a.385.385 0 0 1  .385-.385h3.077a.385.385 0 0 1  .385.385z"/></svg>