<svg viewBox="0 0 20 20" xmlns="http://www.w3.org/2000/svg"><path d="m18.413 17.125c-.056.812-1.014 1.332-2.392 1.658l.2-1.219c.944-.265 1.062-.517 1.063-.52a8.387 8.387 0 0 0 -2.584-6.832 5.241 5.241 0 0 0 -2.268-.766c-.114-.019-.217-.037-.305-.054a.554.554 0 0 1 -.081-.021 1.878 1.878 0 0 1 -1.274-1.084 1.64 1.64 0 0 1  .262-1.46.557.557 0 0 1  .1-.115c.036-.032.073-.066.108-.1a5.081 5.081 0 0 0  .8-4.352 1.954 1.954 0 0 0 -2.042-1.128 1.955 1.955 0 0 0 -2.033 1.128 5.077 5.077 0 0 0  .811 4.367l.091.083a.569.569 0 0 1  .1.117 1.64 1.64 0 0 1  .262 1.46 1.877 1.877 0 0 1 -1.274 1.084.552.552 0 0 1 -.081.021c-.088.017-.192.035-.305.054a5.245 5.245 0 0 0 -2.268.766 8.391 8.391 0 0 0 -2.585 6.836s.119.253 1.067.518l.2 1.219c-1.382-.326-2.343-.846-2.4-1.66a9.565 9.565 0 0 1 3-7.788 6.1 6.1 0 0 1  2.8-1.008l.241-.041c.295-.108.495-.246.538-.372a.564.564 0 0 0 -.112-.416l-.072-.07a6.056 6.056 0 0 1 -1.056-5.611 3.024 3.024 0 0 1  3.076-1.819 3.024 3.024 0 0 1  3.075 1.819 6.056 6.056 0 0 1 -1.04 5.6l-.087.082a.566.566 0 0 0 -.109.42c.043.126.243.263.538.372l.241.041a6.1 6.1 0 0 1 2.8 1.008 9.563 9.563 0 0 1  2.995 7.783zm-2.713-3.575a1.26 1.26 0 0 1  .273 1.023l-.681 4.152a1.555 1.555 0 0 1 -1.5 1.275h-7.578a1.555 1.555 0 0 1 -1.5-1.274l-.686-4.153a1.232 1.232 0 0 1 1.238-1.458h9.472a1.26 1.26 0 0 1  .962.435zm-.863.733a.139.139 0 0 0 -.1-.036h-9.473a.131.131 0 0 0 -.1.035.138.138 0 0 0 -.018.106l.686 4.153a.427.427 0 0 0  .384.326h7.578a.426.426 0 0 0  .384-.326l.681-4.152a.137.137 0 0 0 -.021-.106zm-4.837 1.606a.669.669 0 1 0  .669.669.669.669 0 0 0 -.669-.669z"/></svg>