<svg xmlns="http://www.w3.org/2000/svg" viewBox="0 0 20 20"><title>svg_psicologia</title><path d="M15.739,12.674a13.009,13.009,0,0,0,2.051-4.4,7.012,7.012,0,0,0-1.531-5.741A7.139,7.139,0,0,0,10.769,0,7.95,7.95,0,0,0,8.893.229c-4.135,1.006-5.266,4.6-5.749,6.132a4.452,4.452,0,0,1-.207.51,1.453,1.453,0,0,0-.2,1.072.768.768,0,0,0,.442.454l.028.013a1.437,1.437,0,0,1-.036.483,3.8,3.8,0,0,1-.429.845c-.4.672-.817,1.367-.572,1.967a.827.827,0,0,0,.792.57,1.49,1.49,0,0,0,.422-.074,1.549,1.549,0,0,1-.127.231.485.485,0,0,0-.065.433,1.192,1.192,0,0,0,.31.477.612.612,0,0,0,0,.54.706.706,0,0,0,.4.34A1.87,1.87,0,0,0,5.02,16.356a2.518,2.518,0,0,0,1.058-.028,3.656,3.656,0,0,1,.574-.071c.163,0,.222.033.246.055a8.554,8.554,0,0,1-.472,3.069.485.485,0,0,0,.467.62h0s3.783-.005,6.316-.005c1.744,0,2.133,0,2.2,0h.033a.486.486,0,0,0,.3-.864c-.02-.016-2-1.638-1.544-3.465A11.855,11.855,0,0,1,15.739,12.674Zm-1.451,6.35H13.209c-1.9,0-4.5,0-5.681,0,.344-1.34.574-2.816.113-3.344a1.248,1.248,0,0,0-.988-.4,4.378,4.378,0,0,0-.741.085,3.319,3.319,0,0,1-.508.065.38.38,0,0,1-.1-.01c-.547-.164-.418-1.174-.4-1.289a.645.645,0,0,0-.257-.647l.006,0a.486.486,0,0,0-.384-.862,1.836,1.836,0,0,0,.185-1.011.486.486,0,0,0-.281-.372,1.06,1.06,0,0,0-.438-.092,1.917,1.917,0,0,0-.56.1l-.1.028a4.152,4.152,0,0,1,.508-1.046,4,4,0,0,0,.549-1.162c.15-.8.024-1.242-.436-1.5.03-.086.083-.2.126-.294a5.254,5.254,0,0,0,.251-.622c.717-2.277,1.878-4.708,5.053-5.48a6.979,6.979,0,0,1,1.646-.2,6.17,6.17,0,0,1,4.746,2.191,6.045,6.045,0,0,1,1.319,4.948,12.327,12.327,0,0,1-1.918,4.049,12.443,12.443,0,0,0-1.653,3.276A4.16,4.16,0,0,0,14.288,19.024ZM13.565,9.8l.482-.482.023-.024a.719.719,0,0,0,.09-.793l-.246-.592.018-.043.592-.245a.736.736,0,0,0,.5-.607c0-.008.021-.194.021-.392s-.02-.384-.021-.392a.735.735,0,0,0-.5-.606l-.592-.245-.018-.044.246-.592a.719.719,0,0,0-.09-.794l-.022-.024-.482-.482-.024-.022a.733.733,0,0,0-.794-.09l-.592.246-.043-.018-.245-.593a.736.736,0,0,0-.607-.5c-.008,0-.194-.02-.391-.02s-.384.02-.392.02a.735.735,0,0,0-.607.5l-.245.593-.043.018L8.992,3.33a.734.734,0,0,0-.794.09l-.024.022-.482.482-.022.023a.719.719,0,0,0-.091.794l.246.592-.018.044-.593.245a.734.734,0,0,0-.5.607c0,.008-.021.194-.021.392s.02.384.021.391a.734.734,0,0,0,.5.608l.593.245.018.043L7.58,8.5a.72.72,0,0,0,.091.794.292.292,0,0,0,.022.024l.482.481.024.022a.733.733,0,0,0,.794.09l.592-.246.043.018.245.592a.734.734,0,0,0,.607.5c.008,0,.194.021.392.021s.383-.02.391-.021a.736.736,0,0,0,.607-.5l.245-.593.043-.018.592.246a.72.72,0,0,0,.794-.09Zm-.6-1.721.29.7L13.026,9l-.7-.29a.469.469,0,0,0-.393.014,2.4,2.4,0,0,1-.325.136.471.471,0,0,0-.289.268l-.3.718a3,3,0,0,1-.308,0l-.3-.718a.471.471,0,0,0-.288-.268,2.332,2.332,0,0,1-.324-.135.47.47,0,0,0-.394-.015l-.7.29-.229-.229.291-.7a.471.471,0,0,0-.015-.394,2.342,2.342,0,0,1-.136-.325.472.472,0,0,0-.268-.288l-.718-.3c0-.046,0-.1,0-.154s0-.108,0-.154l.718-.3a.472.472,0,0,0,.268-.288,2.352,2.352,0,0,1,.136-.324.471.471,0,0,0,.015-.394l-.291-.7.229-.229.7.291a.471.471,0,0,0,.394-.015,2.37,2.37,0,0,1,.324-.135.471.471,0,0,0,.288-.268l.3-.718a3,3,0,0,1,.308,0l.3.718a.472.472,0,0,0,.289.268,2.382,2.382,0,0,1,.325.135.471.471,0,0,0,.393.015l.7-.291.229.229-.29.7a.472.472,0,0,0,.015.394,2.354,2.354,0,0,1,.136.324.471.471,0,0,0,.268.288l.718.3c0,.046,0,.1,0,.154s0,.108,0,.154l-.718.3a.471.471,0,0,0-.268.288,2.344,2.344,0,0,1-.136.325A.472.472,0,0,0,12.964,8.077ZM10.87,4.967A1.653,1.653,0,1,0,12.523,6.62,1.655,1.655,0,0,0,10.87,4.967Zm0,2.5a.845.845,0,1,1,.845-.845A.846.846,0,0,1,10.87,7.465Z"/></svg>