<svg xmlns="http://www.w3.org/2000/svg" viewBox="0 0 20 20"><title>svg_comunicacion_marketing</title><path d="M17.657,16.2V11.972A1.3,1.3,0,0,0,16.39,10.7h-.5A1.325,1.325,0,0,0,14.7,9.859h-.652a1.633,1.633,0,0,0-1.039-.423h-.423V6.9a1.268,1.268,0,1,0-2.535,0v6.158l-.065.062-.84-1.3A1.5,1.5,0,0,0,7.442,11.2a1,1,0,0,0-.77.873v.072l.024.068c.39,1.117,1.319,3.746,1.509,4.043a6.5,6.5,0,0,0,.682.794,6.075,6.075,0,0,1,.743.878v.385H8.784V20h.845v-.845h7.183V20h.845V18.31h-.845a1.811,1.811,0,0,1,.3-.624A2.9,2.9,0,0,0,17.657,16.2Zm-.845,0a2.2,2.2,0,0,1-.425,1.049,2.128,2.128,0,0,0-.42,1.064H10.474v-.423c0-.37-.352-.761-.973-1.421A6.783,6.783,0,0,1,8.92,15.8c-.128-.229-.862-2.262-1.373-3.721a.55.55,0,0,1,.3-.109.7.7,0,0,1,.6.326l1.382,2.142L10.9,13.42V6.9a.423.423,0,0,1,.845,0v5.493h.845V10.282h.423a.813.813,0,0,1,.423.163v1.95h.845V10.7H14.7a.473.473,0,0,1,.423.423v1.69h.845V11.549h.423a.473.473,0,0,1,.423.423ZM8.36,9.894,5.382,11.378a.7.7,0,0,1-1-.758L5,7.489,2.55,5.062a.7.7,0,0,1,.429-1.19l3.3-.295L7.727.408A.691.691,0,0,1,8.362,0h0A.69.69,0,0,1,9,.408l1.445,3.169,3.3.295a.7.7,0,0,1,.429,1.19l-.866.858-.6-.6.64-.634L10.121,4.4a.423.423,0,0,1-.347-.246l-1.413-3.1-1.412,3.1A.423.423,0,0,1,6.6,4.4L3.37,4.686,5.751,7.049a.423.423,0,0,1,.117.381l-.6,3.058,2.9-1.445a.422.422,0,0,1,.378,0l1.27.638-.379.755Z"/></svg>