<svg xmlns="http://www.w3.org/2000/svg" viewBox="0 0 20 20"><title>svg_comunicacion_imagen_empresarial</title><path d="M18.988,5.977l-.072-.062a1.319,1.319,0,0,0-.279-.18l.4-.381a1.3,1.3,0,0,0,.4-.948,1.386,1.386,0,0,0-.385-.962l-.07-.074A1.373,1.373,0,0,0,17.5,3.028V1.677A1.679,1.679,0,0,0,15.821,0H8.694A1.679,1.679,0,0,0,7.017,1.676V5.413a1.041,1.041,0,0,0-.715.67c-.242.773-.415,1.348-.555,1.817-.261.87-.405,1.35-.674,2.049a7.537,7.537,0,0,0-.345,2.469,4.5,4.5,0,0,1-.076.96c-.039.073-.326.536-.644,1.044l-.763-.763L.555,16.35,4.205,20l.593-.593L1.74,16.35l1.5-1.5L8.4,20l.09-.09L8.575,20c.007-.007.67-.69,1.114-1.12a5.6,5.6,0,0,0,5.067-2.506l.014-.02h1.049A1.679,1.679,0,0,0,17.5,14.673v-.416c.035,0,.071.008.106.008a.845.845,0,0,0,.655-.279l.843-.969a1.279,1.279,0,0,0-.15-1.8l-.07-.06a1.3,1.3,0,0,0-.274-.177l.533-.613a1.258,1.258,0,0,0,.3-.94,1.307,1.307,0,0,0-.451-.879l-.072-.063a1.318,1.318,0,0,0-.235-.16L19.14,7.8A1.294,1.294,0,0,0,18.988,5.977ZM7.855,1.676A.839.839,0,0,1,8.694.838h7.126a.839.839,0,0,1,.838.838V2.1h-8.8Zm0,1.258h8.8v.753l-.582.548a1.221,1.221,0,0,0,.213,1.69l.07.074a1.838,1.838,0,0,0,.457.349l-.58.667a.843.843,0,0,0-.192.619,1.493,1.493,0,0,0,.539.973l.072.062h0a1.8,1.8,0,0,0,.23.168l-.65.747a1.164,1.164,0,0,0,.349,1.592l.072.062a1.76,1.76,0,0,0,.28.194l-.7.806a.863.863,0,0,0-.162.757H9.325a6.534,6.534,0,0,0-.969-2.278,12.336,12.336,0,0,0,.553-2.886A2.963,2.963,0,0,0,8.291,5.81a1.075,1.075,0,0,0-.436-.349ZM9.563,18.028l-.184-.014-.134.127c-.215.2-.512.5-.765.755L4.615,15.032c.489-.779.756-1.213.79-1.287a3.632,3.632,0,0,0,.16-1.305,6.916,6.916,0,0,1,.289-2.188c.281-.73.437-1.249.7-2.11.14-.466.312-1.039.552-1.808a.245.245,0,0,1,.2-.138.317.317,0,0,1,.3.1,2.16,2.16,0,0,1,.466,1.457,11.58,11.58,0,0,1-.583,2.908l-.071.215.14.178A6.131,6.131,0,0,1,8.3,16.631l.791.277c.066-.188.121-.374.17-.558h4.456A4.667,4.667,0,0,1,9.563,18.028Zm7.1-3.355a.84.84,0,0,1-.838.838H9.427a7,7,0,0,0,.033-1.677H16.6l.048.041.007.005Zm1.808-2.205-.824.953a.582.582,0,0,1-.443-.181l-.071-.061a.734.734,0,0,1-.257-.391l.842-.969A.413.413,0,0,1,18,11.679h.027a.461.461,0,0,1,.3.113l.07.06A.44.44,0,0,1,18.467,12.468Zm.039-2.65-.841.973a.6.6,0,0,1-.459-.185l-.072-.062a.712.712,0,0,1-.262-.408l.856-.985A.432.432,0,0,1,18.057,9a.478.478,0,0,1,.311.117l.072.063A.473.473,0,0,1,18.6,9.5.425.425,0,0,1,18.506,9.818Zm0-2.569-.84.972a.6.6,0,0,1-.46-.185l-.072-.062a.712.712,0,0,1-.262-.408l.857-.985a.426.426,0,0,1,.3-.146.486.486,0,0,1,.339.116l.072.062A.453.453,0,0,1,18.505,7.249Zm-.04-2.5-.992.938a.679.679,0,0,1-.5-.261l-.07-.074a.748.748,0,0,1-.245-.5l1-.946a.467.467,0,0,1,.324-.126.555.555,0,0,1,.4.176l.07.074a.551.551,0,0,1,.154.382A.469.469,0,0,1,18.465,4.746Zm-6.837,9.508h1.258v.838H11.628ZM2.947,16.646l.593-.593.419.419-.593.593Zm7.689-8.436-.12,1.432a.419.419,0,0,0,.418.454.423.423,0,0,0,.131-.021l1.405-.463,1.4.443a.419.419,0,0,0,.544-.436L14.3,8.215,15.283,6.9a.42.42,0,0,0-.261-.664L13.6,5.983l-.768-1.342a.436.436,0,0,0-.728,0l-.768,1.342-1.423.257a.419.419,0,0,0-.26.665Zm1.04-1.437a.421.421,0,0,0,.289-.2l.5-.876.5.876a.421.421,0,0,0,.289.2l.947.171-.673.9a.418.418,0,0,0-.082.287l.08.941-.936-.3a.424.424,0,0,0-.257,0l-.931.307.08-.96a.42.42,0,0,0-.083-.287l-.671-.89Z"/></svg>