<svg xmlns="http://www.w3.org/2000/svg" viewBox="0 0 20 20"><title>svg_ciencias_computacion</title><path d="M9.956,14.3a1.016,1.016,0,0,0-.108.116,2.015,2.015,0,0,0-.31.484h-7.8A1.744,1.744,0,0,1,0,13.156V2.925A1.744,1.744,0,0,1,1.741,1.183H16.124a1.744,1.744,0,0,1,1.742,1.742v9.65a1.808,1.808,0,0,0-.793-.566,2.006,2.006,0,0,0-.207-.063V2.925a.743.743,0,0,0-.742-.742H1.741A.743.743,0,0,0,1,2.925V13.156a.743.743,0,0,0,.742.742h8.68l-.24.205A2.026,2.026,0,0,0,9.956,14.3Zm5.57-2.66V3.646a.452.452,0,0,0-.452-.452H2.791a.452.452,0,0,0-.452.452v8.79a.452.452,0,0,0,.452.452h7.653v-.9h-7.2V4.1H14.622v7.3A1.737,1.737,0,0,1,15.526,11.637Zm3.921,1.941a1.547,1.547,0,0,0-1.469-.315,1.489,1.489,0,0,0-.226.072l0-.008a1.53,1.53,0,0,0-.846-.849,1.3,1.3,0,0,0-.975.015c-.106.038-.13.047-.19.024l-.025-.033a1.3,1.3,0,0,0-1.1-.591,2.018,2.018,0,0,0-.595.088V8.545a1.538,1.538,0,0,0-3.075,0v5.564l-.452.387a1.519,1.519,0,0,0-.191.164.528.528,0,0,0-.067.073,1.5,1.5,0,0,0-.378.993v1.359a.534.534,0,0,0,.062.248l.782,1.484h1.2l-.982-1.864V15.725a.439.439,0,0,1,.124-.3l.011-.012a.463.463,0,0,1,.063-.053.564.564,0,0,0,.046-.035l.658-.563a.533.533,0,0,0,.186-.4V8.545a.473.473,0,0,1,.945,0V12.81a.528.528,0,0,0,.2.427.511.511,0,0,0,.454.092l.028-.007A.5.5,0,0,0,13.7,13.3a2.484,2.484,0,0,0,.273-.136,1.244,1.244,0,0,1,.641-.206c.112,0,.138.024.251.172a.974.974,0,0,0,.365.328,1.254,1.254,0,0,0,1.061.036c.128-.047.144-.052.247-.015s.157.124.258.325a1,1,0,0,0,.645.62,1.1,1.1,0,0,0,.678-.088.7.7,0,0,1,.107-.037c.338-.087.463.028.5.066a.967.967,0,0,1,.187.829c-.078.49-.444,2.433-.67,3.623h1.084c.228-1.2.561-2.974.638-3.455A1.992,1.992,0,0,0,19.447,13.578ZM5.863,5.32H4.7V6.481H5.863Zm2.269,0H6.971V6.481H8.132Zm2.27,0H9.24V6.481H10.4Zm2.27,1.161V5.32H11.51V6.481Zm-6.809.9H4.7V8.54H5.863ZM6.971,8.54H8.132V7.379H6.971ZM10.4,7.379H9.241V8.54H10.4ZM4.7,10.6H5.863V9.437H4.7Z"/></svg>