<svg viewBox="0 0 20 20" xmlns="http://www.w3.org/2000/svg"><path d="m15.788 12.273a2.114 2.114 0 1 0 2.112 2.114 2.117 2.117 0 0 0 -2.112-2.114zm0 3.434a1.319 1.319 0 1 1 1.32-1.319 1.321 1.321 0 0 1 -1.32 1.318zm4.212 3.08v.75a.4.4 0 1 1 -.795 0v-.75a.743.743 0 0 0 -.469-.693l-1.285-.515-1.343 1.814a.412.412 0 0 1 -.639 0l-1.343-1.814-1.285.515a.743.743 0 0 0 -.47.693v.75a.4.4 0 0 1 -.795 0v-.75a1.534 1.534 0 0 1  .97-1.432l1.569-.628a.4.4 0 0 1  .467.133l1.206 1.629 1.207-1.629a.4.4 0 0 1  .467-.133l1.57.628a1.534 1.534 0 0 1  .968 1.432zm-17.9-4.4a2.114 2.114 0 1 0 2.114-2.114 2.117 2.117 0 0 0 -2.114 2.114zm3.434 0a1.32 1.32 0 1 1 -1.32-1.319 1.321 1.321 0 0 1  1.318 1.319zm2.893 4.4v.75a.4.4 0 0 1 -.795 0v-.75a.743.743 0 0 0 -.469-.693l-1.285-.515-1.346 1.814a.412.412 0 0 1 -.639 0l-1.344-1.814-1.285.515a.743.743 0 0 0 -.47.693v.75a.4.4 0 0 1 -.795 0v-.75a1.534 1.534 0 0 1  .97-1.432l1.569-.628a.4.4 0 0 1  .467.133l1.207 1.629 1.207-1.629a.4.4 0 0 1  .467-.133l1.57.628a1.534 1.534 0 0 1  .968 1.432zm-4.149-9.153h.3l-.3 1.7a.4.4 0 0 0  .625.391l2.872-2.091h4.451l2.874 2.087a.4.4 0 0 0  .625-.391l-.3-1.7h.3a2.307 2.307 0 0 0 2.3-2.3v-4.96a2.307 2.307 0 0 0 -2.3-2.3h-11.447a2.307 2.307 0 0 0 -2.3 2.3v4.96a2.307 2.307 0 0 0 2.3 2.304zm6.122-8.774h5.325a1.512 1.512 0 0 1 1.51 1.51v4.96a1.512 1.512 0 0 1 -1.51 1.51h-.769a.4.4 0 0 0 -.391.466l.211 1.194-2.188-1.585a.4.4 0 0 0 -.233-.076h-1.955v-2.22a1.889 1.889 0 0 0  .747.154 1.923 1.923 0 1 0  0-3.846 1.9 1.9 0 0 0 -.747.154zm-7.632 1.51a1.512 1.512 0 0 1 1.51-1.51h5.322v2.99a.4.4 0 0 0  .7.262 1.113 1.113 0 0 1  .846-.39 1.128 1.128 0 1 1  0 2.257 1.112 1.112 0 0 1 -.845-.391.4.4 0 0 0 -.7.262v2.99h-1.955a.4.4 0 0 0 -.233.076l-2.185 1.584.211-1.194a.4.4 0 0 0 -.391-.466h-.77a1.512 1.512 0 0 1 -1.51-1.51z"/></svg>