<svg xmlns="http://www.w3.org/2000/svg" viewBox="0 0 20 20"><title>svg_administracion_agronegocios</title><path d="M13,10.41a4.245,4.245,0,0,0,1.238-3.262V7.139c0-3.426-3.794-6.882-3.956-7.027a.435.435,0,0,0-.583,0c-.162.145-3.956,3.6-3.956,7.027v.009a4.253,4.253,0,0,0,3.812,4.485v1.184a.436.436,0,0,0,.871,0V11.633A4.223,4.223,0,0,0,13,10.41ZM7.6,9.793a3.373,3.373,0,0,1-.981-2.628.434.434,0,0,0,0-.069c.029-2.511,2.513-5.2,3.376-6.056.863.858,3.347,3.544,3.376,6.056a.407.407,0,0,0,0,.069,3.374,3.374,0,0,1-2.94,3.589v-.717l2.044-2.044a.435.435,0,1,0-.616-.616L10.427,8.8V7.014l1.3-1.3a.435.435,0,0,0-.616-.616l-.689.688V3.993a.436.436,0,0,0-.871,0V5.782l-.688-.688a.435.435,0,0,0-.616.616l1.3,1.3V8.8L8.128,7.376a.435.435,0,1,0-.616.616l2.044,2.044v.718A3.355,3.355,0,0,1,7.6,9.793Zm.679,4.388a3,3,0,0,1,1.008,2.475v2.909a.436.436,0,1,1-.871,0V16.655A2.144,2.144,0,0,0,7.665,14.8L5.478,12.617a.47.47,0,0,0-.335-.14h0a.476.476,0,0,0-.337.812l1.486,1.486a1.236,1.236,0,0,1-1.747,1.747L2.659,14.637a1.438,1.438,0,0,1-.487-1.086V9.423a.6.6,0,0,0-1.209,0v5.393a1.638,1.638,0,0,0,.492,1.142l2.376,2.375a.436.436,0,0,1,.128.308v.923a.436.436,0,1,1-.871,0v-.742L.864,16.6a2.5,2.5,0,0,1-.771-1.781V9.423a1.476,1.476,0,1,1,2.951,0v4.128c0,.158,0,.211.247.486l1.87,1.869a.364.364,0,1,0,.515-.515L4.19,13.906a1.347,1.347,0,0,1,.953-2.3h0a1.335,1.335,0,0,1,.951.4ZM19.908,9.423v5.393a2.515,2.515,0,0,1-.8,1.8l-2.2,2.2v.742a.436.436,0,1,1-.871,0v-.923a.436.436,0,0,1,.128-.308l2.352-2.353a1.631,1.631,0,0,0,.516-1.164V9.423a.6.6,0,0,0-1.209,0v4.128a1.416,1.416,0,0,1-.471,1.069l-1.9,1.9a1.235,1.235,0,0,1-1.747-1.747l1.486-1.486a.476.476,0,0,0-.337-.812h0a.471.471,0,0,0-.335.139L12.336,14.8a2.144,2.144,0,0,0-.748,1.854v2.909a.436.436,0,1,1-.871,0V16.655a3,3,0,0,1,1.008-2.475l.03-.03L13.906,12a1.336,1.336,0,0,1,.951-.394h0a1.347,1.347,0,0,1,.952,2.3l-1.486,1.486a.364.364,0,1,0,.515.515l1.886-1.886c.232-.258.232-.312.232-.469V9.423a1.476,1.476,0,1,1,2.951,0Z"/></svg>