<svg viewBox="0 0 20 20" xmlns="http://www.w3.org/2000/svg"><path d="m18.621 1.44a1.442 1.442 0 0 0 -.521-1.14 1.442 1.442 0 0 0 -1.233-.26l-8.667 1.96a1.972 1.972 0 0 0 -1.486 1.86v10.331a3.271 3.271 0 1 0 1.207 2.537h.005v-8.835l9.481-2.149v6.287a3.271 3.271 0 1 0 1.208 2.538c0-.089-.006-.177-.013-.265h.017zm-13.97 17.348a2.06 2.06 0 1 1 2.06-2.06 2.063 2.063 0 0 1 -2.06 2.06zm3.277-12.137v-2.787a.76.76 0 0 1  .542-.678l8.664-1.964a.242.242 0 0 1  .2.026.242.242 0 0 1  .07.193v3.059zm7.417 9.979a2.06 2.06 0 1 1 2.06-2.06 2.063 2.063 0 0 1 -2.06 2.06z"/></svg>