<svg xmlns="http://www.w3.org/2000/svg" viewBox="0 0 20 20"><title>svg_economia_negocios_internacionales</title><path d="M17.917,12.976V7.024a1.663,1.663,0,1,0-1.7-2.653L11.625,2.028a1.667,1.667,0,1,0-3.249,0L3.786,4.37a1.661,1.661,0,1,0-1.7,2.654v5.952a1.663,1.663,0,1,0,1.7,2.654l4.589,2.342a1.667,1.667,0,1,0,3.249,0l4.589-2.342a1.661,1.661,0,1,0,1.7-2.654Zm-3.085-.514a5.379,5.379,0,0,0-.019-4.914l1.531-.936a1.662,1.662,0,0,0,.74.412v5.952a1.662,1.662,0,0,0-.739.411Zm-11.174.926a1.662,1.662,0,0,0-.74-.412V7.024a1.662,1.662,0,0,0,.742-.413l1.528.934a5.378,5.378,0,0,0,.006,4.9Zm1.774-3.381A4.585,4.585,0,0,1,5.605,8.75H7.159a10.077,10.077,0,0,0,0,2.5H5.611A4.562,4.562,0,0,1,5.431,10.007ZM7.914,10A9.291,9.291,0,0,1,8,8.75H9.583v2.5H8A9.292,9.292,0,0,1,7.914,10Zm2.5-4.468a3.652,3.652,0,0,1,1.414,2.383H10.417Zm-.833-.007v2.39H8.156A3.627,3.627,0,0,1,9.583,5.527Zm0,6.557v2.393a3.629,3.629,0,0,1-1.428-2.393Zm.833,2.385V12.083h1.415A3.655,3.655,0,0,1,10.417,14.469Zm0-3.219V8.75h1.571a9.241,9.241,0,0,1,0,2.5Zm2.412-2.5H14.4a4.51,4.51,0,0,1,.014,2.5H12.829a10.077,10.077,0,0,0,0-2.5Zm1.238-.833H12.689a6.4,6.4,0,0,0-.812-2.075A4.619,4.619,0,0,1,14.066,7.917Zm-6.768,0H5.932A4.533,4.533,0,0,1,8.111,5.841,6.4,6.4,0,0,0,7.3,7.917ZM5.94,12.083H7.3a6.4,6.4,0,0,0,.813,2.079A4.617,4.617,0,0,1,5.94,12.083Zm6.75,0h1.4A4.54,4.54,0,0,1,11.855,14.2,6.36,6.36,0,0,0,12.69,12.083Zm4.81-7.5a.833.833,0,1,1-.833.833A.834.834,0,0,1,17.5,4.583Zm-1.638.545a1.477,1.477,0,0,0,.05.77l-1.539.941A5.417,5.417,0,0,0,10.417,4.62V3.274a1.659,1.659,0,0,0,.824-.506ZM10,.833a.833.833,0,1,1-.833.833A.834.834,0,0,1,10,.833ZM8.758,2.768a1.659,1.659,0,0,0,.825.506V4.618a5.35,5.35,0,0,0-3.41,1.564,5.448,5.448,0,0,0-.549.653L4.088,5.9a1.481,1.481,0,0,0,.049-.77ZM1.667,5.417A.833.833,0,1,1,2.5,6.25.834.834,0,0,1,1.667,5.417Zm.833,10a.833.833,0,1,1,.833-.833A.834.834,0,0,1,2.5,15.417Zm1.637-.543a1.481,1.481,0,0,0-.05-.772l1.54-.941A5.418,5.418,0,0,0,9.583,15.4v1.33a1.659,1.659,0,0,0-.825.506ZM10,19.167a.833.833,0,1,1,.833-.833A.834.834,0,0,1,10,19.167Zm1.241-1.935a1.659,1.659,0,0,0-.825-.506V15.4a5.352,5.352,0,0,0,3.424-1.565,5.451,5.451,0,0,0,.555-.661l1.518.928a1.483,1.483,0,0,0-.051.774ZM17.5,15.417a.833.833,0,1,1,.833-.833A.834.834,0,0,1,17.5,15.417Z"/></svg>