<svg viewBox="0 0 20 20" xmlns="http://www.w3.org/2000/svg"><path d="m19.88 8.2-2.985-5.6a1.323 1.323 0 0 0 -.874-.606c-.449-.07-3.094-.518-3.121-.522a.562.562 0 0 0 -.643.429 2.735 2.735 0 0 1 -2.257 2.249 2.735 2.735 0 0 1 -2.257-2.257.565.565 0 0 0 -.643-.429c-.027 0-2.672.453-3.121.522a1.329 1.329 0 0 0 -.887.628l-2.972 5.586a.892.892 0 0 0 -.093.66.782.782 0 0 0  .476.52l2.519 1.107a.758.758 0 0 0 1.007-.367l.118-.232c-.122 2.889-.3 7.192-.313 7.558a1.044 1.044 0 0 0  .284.785 1.107 1.107 0 0 0  .79.316h10.192a1.1 1.1 0 0 0  .782-.316 1.045 1.045 0 0 0  .284-.785c-.011-.366-.191-4.669-.313-7.558l.117.232a.764.764 0 0 0  .685.437h0a .743.743 0 0 0  .306-.064l2.539-1.117a.782.782 0 0 0  .477-.521.892.892 0 0 0 -.097-.655zm-3.051 1.119-1.146-2.259a.563.563 0 0 0 -1.065.279c0 .093.38 8.982.418 10.079h-10.074c.034-.966.416-9.983.42-10.076a.563.563 0 0 0 -1.065-.282l-1.146 2.259-1.923-.845 2.825-5.306a.229.229 0 0 1  .079-.068c.339-.053 1.844-.306 2.64-.441a3.812 3.812 0 0 0 3.168 2.62.631.631 0 0 0  .078 0 3.811 3.811 0 0 0  3.168-2.62c.8.135 2.3.388 2.64.441a.222.222 0 0 1  .079.069l2.825 5.305z"/></svg>