<svg xmlns="http://www.w3.org/2000/svg" viewBox="0 0 20 20"><title>svg_ingenieria_civil</title><path d="M8.443.9h1.25a.452.452,0,0,0,0-.9H8.443a.452.452,0,0,0,0,.9Z"/><path d="M4.294.9h1.25a.452.452,0,0,0,0-.9H4.294a.452.452,0,0,0,0,.9Z"/><path d="M19.53,13.987a.452.452,0,0,0-.452.452v1.25a.452.452,0,1,0,.9,0V14.44A.452.452,0,0,0,19.53,13.987Z"/><path d="M19.982,10.291a.452.452,0,1,0-.9,0v1.25a.452.452,0,1,0,.9,0Z"/><circle cx="15.317" cy="4.681" r="0.904"/><path d="M10.9,5.549l.854.385a3.753,3.753,0,0,0,.157.379l-.331.876a.452.452,0,0,0,.1.48l.644.644a.452.452,0,0,0,.48.1l.876-.331a3.756,3.756,0,0,0,.379.157l.385.854a.452.452,0,0,0,.412.266h.911a.453.453,0,0,0,.412-.266l.385-.854a3.759,3.759,0,0,0,.379-.157l.876.331a.452.452,0,0,0,.48-.1l.644-.644a.452.452,0,0,0,.1-.48l-.331-.876a3.758,3.758,0,0,0,.157-.379l.854-.385A.452.452,0,0,0,20,5.137V4.226a.452.452,0,0,0-.266-.412l-.854-.385a3.735,3.735,0,0,0-.157-.379l.331-.876a.452.452,0,0,0-.1-.48l-.644-.644a.452.452,0,0,0-.48-.1l-.876.331a3.759,3.759,0,0,0-.379-.157L16.185.266A.453.453,0,0,0,15.773,0h-.911a.452.452,0,0,0-.412.266l-.385.854a3.785,3.785,0,0,0-.379.157L12.809.946a.452.452,0,0,0-.48.1l-.644.644a.452.452,0,0,0-.1.48l.331.876a3.73,3.73,0,0,0-.157.379l-.854.385a.452.452,0,0,0-.266.412v.911A.452.452,0,0,0,10.9,5.549Zm.638-1.031.771-.348a.451.451,0,0,0,.248-.287A2.851,2.851,0,0,1,12.8,3.3a.453.453,0,0,0,.027-.379l-.3-.791.231-.231.791.3a.452.452,0,0,0,.379-.027,2.85,2.85,0,0,1,.587-.243.452.452,0,0,0,.287-.248L15.154.9h.327l.348.771a.452.452,0,0,0,.287.248,2.859,2.859,0,0,1,.587.243.452.452,0,0,0,.379.027l.791-.3.231.231-.3.791a.453.453,0,0,0,.027.379,2.87,2.87,0,0,1,.243.587.451.451,0,0,0,.248.287l.771.348v.327l-.771.348a.452.452,0,0,0-.248.287,2.87,2.87,0,0,1-.243.587.453.453,0,0,0-.027.379l.3.791-.231.231-.791-.3A.453.453,0,0,0,16.7,7.2a2.852,2.852,0,0,1-.588.243.452.452,0,0,0-.287.249l-.348.771h-.327l-.348-.771a.453.453,0,0,0-.287-.249,2.852,2.852,0,0,1-.588-.243.453.453,0,0,0-.379-.027l-.791.3-.231-.231.3-.791a.453.453,0,0,0-.027-.379,2.848,2.848,0,0,1-.243-.588.452.452,0,0,0-.248-.287l-.771-.348Z"/><path d="M19.841,19.2.772.133A.452.452,0,0,0,0,.452v19.1A.452.452,0,0,0,.452,20h19.1a.452.452,0,0,0,.293-.8ZM13.969,19.1v-.45a.452.452,0,1,0-.9,0v.45H11.557v-.45a.452.452,0,1,0-.9,0v.45H9.145v-.45a.452.452,0,1,0-.9,0v.45H6.733v-.45a.452.452,0,1,0-.9,0v.45H4.321v-.45a.452.452,0,1,0-.9,0v.45H.9V1.544L18.454,19.1Z"/><path d="M3.869,16.583H11.3a.452.452,0,0,0,.293-.8l-7.4-7.4a.452.452,0,0,0-.772.32v7.429A.452.452,0,0,0,3.869,16.583Zm.452-6.789,5.884,5.885H4.321Z"/></svg>