<svg viewBox="0 0 20 20" xmlns="http://www.w3.org/2000/svg"><path d="m10.023 3.64a.856.856 0 1 1 -.856-.856.856.856 0 0 1  .856.856zm3.827 5.86h-1.16a.929.929 0 0 0 -.928.928v2.1a.565.565 0 0 1 -.565.565h-1a1.67 1.67 0 0 0 -1.297.407.478.478 0 0 0 -.063.444 3.042 3.042 0 0 0  2.433 1.81.565.565 0 0 1  .49.56v1.623a2.06 2.06 0 0 1 -2.06 2.063h-7.445a2.06 2.06 0 0 1 -2.055-2.058v-15.884a2.06 2.06 0 0 1 2.055-2.058h8.134a2.983 2.983 0 0 1 2.585 1.729l2.321 5.616a1.583 1.583 0 0 1 -.088 1.5 1.583 1.583 0 0 1 -1.357.655zm-1.16-1.13h1.16a.492.492 0 0 0  .417-.154.493.493 0 0 0 -.017-.445l-2.32-5.611a1.859 1.859 0 0 0 -1.541-1.03h-8.134a.929.929 0 0 0 -.928.928v15.884a.929.929 0 0 0  .928.928h7.445a.929.929 0 0 0  .928-.928v-1.16a4.113 4.113 0 0 1 -2.875-2.508 1.61 1.61 0 0 1  .247-1.451 2.66 2.66 0 0 1  2.194-.859h.436v-1.531a2.06 2.06 0 0 1 2.06-2.058zm3.392 3.139-.8.8a2.946 2.946 0 0 1 0 4.16l.8.8a4.078 4.078 0 0 0 0-5.755zm-2.344 1.94a1.329 1.329 0 0 1 0 1.877l.8.8a2.461 2.461 0 0 0 0-3.475zm4.15-3.686-.8.8a5.411 5.411 0 0 1 0 7.652l.8.8a6.541 6.541 0 0 0 0-9.25z"/></svg>