<svg viewBox="0 0 20 20" xmlns="http://www.w3.org/2000/svg"><path d="m6.882 4.172h0a5.093 5.093 0 0 0 1.49-.24l.412-.126-.041-.429c-.001-.032-.343-3.124-4.381-3.124-.269 0-.552.014-.842.041l-.61.058.147.6a4.118 4.118 0 0 0 3.825 3.22zm.692-1.129a3.618 3.618 0 0 1 -.692.07h0a2.838 2.838 0 0 1 -2.567-1.8c2.263-.013 3.011 1.093 3.259 1.73zm10.159 3.257a5.3 5.3 0 0 0 -4.033-1.7 10.45 10.45 0 0 0 -1.359.111c-.439.055-.938.115-1.571.144a3.547 3.547 0 0 1  .892-2.455 4.105 4.105 0 0 1  3.031-.992v-1.408a5.432 5.432 0 0 0 -4.039 1.415 4.987 4.987 0 0 0 -1.293 3.452h-.039c-.7-.027-1.217-.093-1.677-.151a10.434 10.434 0 0 0 -1.345-.111 5.3 5.3 0 0 0 -4.033 1.695 6.23 6.23 0 0 0 -1.342 4.938 12.77 12.77 0 0 0  2 5.594 7.057 7.057 0 0 0  7.075 3.089 8.959 8.959 0 0 0  1.167.079c5.107 0 7.452-4.72 7.909-8.762a6.231 6.231 0 0 0 -1.343-4.938zm-.06 4.778c-.087.769-1.007 7.509-6.506 7.509a7.6 7.6 0 0 1 -1.067-.077l-.1-.01-.1.014a7.607 7.607 0 0 1 -1.067.078c-5.5 0-6.419-6.741-6.506-7.509a4.853 4.853 0 0 1  .992-3.838 3.859 3.859 0 0 1  2.981-1.228 9.051 9.051 0 0 1  1.168.1c.488.062 1.041.132 1.822.162l1.2.007a18.8 18.8 0 0 0 2.031-.168 9.111 9.111 0 0 1  1.182-.1 3.859 3.859 0 0 1  2.98 1.224 4.853 4.853 0 0 1  .99 3.837zm-12.518-3.968.768.971c-1.67 1.319-1.338 2.927-.855 4.459l-1.18.372c-.394-1.247-1.211-3.843 1.267-5.802z"/></svg>