<svg viewBox="0 0 20 20" xmlns="http://www.w3.org/2000/svg"><path d="m10 0a10 10 0 1 0 10 10 10.011 10.011 0 0 0 -10-10zm6.117 3.71a1.823 1.823 0 0 0  .123-.3 9.1 9.1 0 0 1  2.46 3.958 11.1 11.1 0 0 0 -4.52-.853 11.745 11.745 0 0 0 -.441-1.49h0a2.732 2.732 0 0 0 2.378-1.315zm-.786-1.058a.445.445 0 0 0  .061.193.53.53 0 0 1 -.078.438 1.787 1.787 0 0 1 -1.613.834c-.121.005-.232.006-.347.009a6.871 6.871 0 0 0 -2.972-3.2 9.026 9.026 0 0 1  4.949 1.726zm-7.5-1.471a.443.443 0 0 0  .259.091 4.98 4.98 0 0 1  4.224 2.836 12.239 12.239 0 0 1 -3.442-.8 6.875 6.875 0 0 0 -5.421.4 9.082 9.082 0 0 1  4.382-2.527zm-6.922 8.819a9.022 9.022 0 0 1  .963-4.047.445.445 0 0 0  .287-.136 6.043 6.043 0 0 1  6.415-1.652 12.43 12.43 0 0 0  4.188.869 10.363 10.363 0 0 1  .484 1.492c-.172.007-.346.015-.521.026-5.454.361-9.1 1.7-11.771 4.322-.028-.287-.045-.574-.045-.874zm.2 1.876a.443.443 0 0 0  .251-.124c2.519-2.612 6.04-3.936 11.425-4.292.218-.015.434-.024.647-.03a15.485 15.485 0 0 1  .2 2.075c-1.827.255-2.849 1.466-3.925 2.746a9.735 9.735 0 0 1 -6.3 3.993 9.069 9.069 0 0 1 -2.301-4.368zm8.066 6.811a.45.45 0 0 0 -.425.307 9.051 9.051 0 0 1 -4.533-1.988 10.7 10.7 0 0 0  6.19-4.17c1.011-1.2 1.833-2.161 3.24-2.4-.081 4.871-1.895 8.251-4.475 8.251zm7.59-2.727a.444.444 0 0 0 -.042.141 9.066 9.066 0 0 1 -5.548 2.906c2.02-1.256 3.328-4.447 3.382-8.628a2.225 2.225 0 0 1 1.782 1.047 6.044 6.044 0 0 1  .423 4.534zm.333-5.034a3.155 3.155 0 0 0 -2.555-1.457 16.555 16.555 0 0 0 -.189-2.045 7.891 7.891 0 0 1  4.621 1.185 8.85 8.85 0 0 1 -1.049 5.833 6.319 6.319 0 0 0 -.826-3.516z"/></svg>