<svg viewBox="0 0 20 20" xmlns="http://www.w3.org/2000/svg"><path d="m19.183 1.959h-18.366a.818.818 0 0 0 -.817.817v14.448a.818.818 0 0 0  .817.817h18.366a.818.818 0 0 0  .817-.817v-14.448a.818.818 0 0 0 -.817-.817zm-.373 14.892h-17.62v-13.702h17.62zm-11.299-4.211a.835.835 0 0 0  .823.9.976.976 0 0 0  .525-.164l3.915-2.514a.9.9 0 0 0 0-1.556l-3.914-2.506a.978.978 0 0 0 -.525-.164.835.835 0 0 0 -.824.9zm1.189-4.529 3.082 1.974-3.082 1.979zm2.183-2.651h-1.766v-1.19h1.766zm-3.237 0h-1.765v-1.19h1.765zm6.474 0h-1.766v-1.19h1.766zm-9.711 0h-1.766v-1.19h1.766zm12.948 0h-1.766v-1.19h1.766zm-5 9.235h1.763v1.19h-1.766zm-3.237 0h1.766v1.19h-1.769zm-4.708 1.19h-1.769v-1.19h1.766zm12.948 0h-1.769v-1.19h1.766zm-9.711 0h-1.768v-1.19h1.765z"/></svg>