<svg viewBox="0 0 20 20" xmlns="http://www.w3.org/2000/svg"><path d="m13.269 17.513a.506.506 0 0 1 -.506.506h-5.526a.506.506 0 0 1 0-1.013h5.526a.506.506 0 0 1  .506.507zm-1.84 1.474h-2.858a.506.506 0 0 0 0 1.013h2.859a.506.506 0 0 0 0-1.013zm5.927-11.767a5.954 5.954 0 0 1 -1.367 4.191c-1.359 1.462-2.729 2.1-2.964 4.608h-6.056c-.233-2.5-1.605-3.147-2.957-4.608a6.39 6.39 0 0 1 -1.368-4.191 7.287 7.287 0 0 1  7.356-7.22 7.291 7.291 0 0 1  7.356 7.22zm-1.013 0a6.285 6.285 0 0 0 -6.343-6.207 6.282 6.282 0 0 0 -6.343 6.207 5.407 5.407 0 0 0  1.121 3.528c.27.29.55.554.821.81a6.385 6.385 0 0 1 2.236 3.45h1.62c1.3-3.93.287-6.572-.222-7.541a.506.506 0 1 1  .9-.471 9.274 9.274 0 0 1  .977 4.263 2.223 2.223 0 0 0  .855-1.152 3.526 3.526 0 0 0 -.342-3.048 7.656 7.656 0 0 0 -3.141-2.718 8.491 8.491 0 0 0 -1.018 4.017 3.518 3.518 0 0 0  1.755 2.789 10.189 10.189 0 0 1 -.06 1.093 4.5 4.5 0 0 1 -2.707-3.858 9.467 9.467 0 0 1  1.388-4.954l.211-.321.366.117a8.377 8.377 0 0 1 4.045 3.276 4.508 4.508 0 0 1  .45 3.952 3.04 3.04 0 0 1 -1.864 1.941 13.234 13.234 0 0 1 -.53 2.615h1.643a6.4 6.4 0 0 1 2.245-3.455c.272-.256.554-.521.826-.812a4.987 4.987 0 0 0 1.111-3.521z"/></svg>