<svg viewBox="0 0 20 20" xmlns="http://www.w3.org/2000/svg"><path d="m14.037 16.737h1.317v.886h-1.317v1.309h-.886v-1.309h-1.317v-.886h1.317v-1.309h.886zm-8.567-12.206a4.531 4.531 0 1 1 4.53 4.53 4.536 4.536 0 0 1 -4.53-4.53zm.886 0a3.645 3.645 0 1 0 3.644-3.645 3.649 3.649 0 0 0 -3.644 3.645zm7.311 5.3h0a .436.436 0 0 0 -.393.133.445.445 0 0 0 -.057.058l0 0-3.217 4.965-3.21-4.966 0 0a .437.437 0 0 0 -.356-.192.459.459 0 0 0 -.093 0h0c-3.187.612-5.246 2.153-5.246 3.926v5.672a.443.443 0 0 0  .886 0v-5.675c0-1.26 1.692-2.444 4.237-2.994l3.254 5.042-2.272 3.516a.443.443 0 1 0  .744.481l2.42-3.744h0l3.422-5.295c2.546.55 4.237 1.734 4.237 2.994v5.672a.443.443 0 0 0  .886 0v-5.672c.003-1.773-2.055-3.314-5.243-3.926z"/></svg>