<svg viewBox="0 0 20 20" xmlns="http://www.w3.org/2000/svg"><path d="m19.6 19.2h-19.2a.4.4 0 1 1 0-.8h19.2a.4.4 0 0 1 0 .8zm-.392-3.6a.393.393 0 0 0 -.023-.134l-1.985-13.923a.4.4 0 0 0 -.792 0l-2 14a .4.4 0 0 0  .4.457h4.008a.4.4 0 0 0  .392-.4zm-2.408-11.171 1.539 10.771h-3.078zm-3.592 11.171a.4.4 0 0 0 -.067-.222l-1.971-4.732a.4.4 0 0 0 -.738 0l-2 4.8a.4.4 0 0 0  .368.554h4.008a.4.4 0 0 0  .4-.4zm-2.408-3.76 1.4 3.36h-2.8zm-3.592 3.76a.394.394 0 0 0 -.037-.168l-1.981-8.325a.4.4 0 0 0 -.39-.307h0a .4.4 0 0 0 -.389.307l-2 8.4a.4.4 0 0 0  .389.493h4.008a.4.4 0 0 0  .4-.4zm-2.408-6.673 1.494 6.273h-2.988zm-4.4 6.273a.4.4 0 1 0  .4.4.4.4 0 0 0 -.4-.4zm0-2.4a.4.4 0 1 0  .4.4.4.4 0 0 0 -.4-.4zm0-2.4a.4.4 0 1 0  .4.4.4.4 0 0 0 -.4-.4zm0-2.4a.4.4 0 1 0  .4.4.4.4 0 0 0 -.4-.4zm0-2.4a.4.4 0 1 0  .4.4.4.4 0 0 0 -.4-.4zm0-2.4a.4.4 0 1 0  .4.4.4.4 0 0 0 -.4-.4zm0-2.4a.4.4 0 1 0  .4.4.4.4 0 0 0 -.4-.4z"/></svg>