<svg xmlns="http://www.w3.org/2000/svg" viewBox="0 0 20 20"><title>svg_administracion_finanzas</title><path d="M0,8.4a.4.4,0,1,1,.4.4A.4.4,0,0,1,0,8.4Zm.4,2.8a.4.4,0,1,0-.4-.4A.4.4,0,0,0,.4,11.2Zm0-4.8A.4.4,0,1,0,0,6,.4.4,0,0,0,.4,6.4ZM.4,4A.4.4,0,1,0,0,3.6.4.4,0,0,0,.4,4Zm0-2.4A.4.4,0,1,0,0,1.2.4.4,0,0,0,.4,1.6ZM19.6,18.4H.4a.4.4,0,1,0,0,.8H19.6a.4.4,0,0,0,0-.8Zm.4-6A1.6,1.6,0,0,1,18.4,14a1.585,1.585,0,0,1-.653-.143l-.634.793a.4.4,0,0,1-.313.15H15.2a.4.4,0,0,1-.312-.15l-1.259-1.573-1.3,1.945A.4.4,0,0,1,12,15.2H10.4a.4.4,0,0,1-.333-.178L8.738,13.028,7.482,14.283A.4.4,0,0,1,7.2,14.4H5.765L4.282,15.883A.4.4,0,0,1,4,16H2.4a.4.4,0,0,1-.137-.028l-.033-.014c-.009,0-.019-.006-.028-.012a.373.373,0,0,1-.037-.032A.39.39,0,0,1,2.1,15.86a.562.562,0,0,1-.075-.13.39.39,0,0,1-.016-.081A.376.376,0,0,1,2,15.6c0-.008,0-.015,0-.023a.659.659,0,0,1,.041-.154c0-.007,0-.015.007-.022l1.575-2.758L5.215,7.09a.4.4,0,0,1,.743-.069L7.447,10H8.469l1.538-8.075a.4.4,0,0,1,.764-.073l1.5,3.748H13.6a.4.4,0,0,1,.312.15l1.48,1.85H16.5l1.093-3.827A1.589,1.589,0,1,1,18.4,4c-.014,0-.027,0-.04,0L17.184,8.11a.4.4,0,0,1-.384.29H15.2a.4.4,0,0,1-.312-.15L13.407,6.4H12a.4.4,0,0,1-.371-.252L10.537,3.419,9.193,10.475A.4.4,0,0,1,8.8,10.8H7.2a.4.4,0,0,1-.358-.221L5.7,8.3,4.384,12.91A.41.41,0,0,1,4.347,13L3.089,15.2h.745l1.483-1.483A.4.4,0,0,1,5.6,13.6H7.034l1.483-1.483a.4.4,0,0,1,.616.061L10.614,14.4h1.172l1.481-2.222A.4.4,0,0,1,13.582,12a.4.4,0,0,1,.33.15L15.392,14h1.216l.516-.645A1.584,1.584,0,0,1,16.8,12.4a1.6,1.6,0,0,1,3.2,0Zm-2.4-10a.8.8,0,1,0,.8-.8A.8.8,0,0,0,17.6,2.4Zm1.6,10a.8.8,0,1,0-.8.8A.8.8,0,0,0,19.2,12.4ZM.4,13.6a.4.4,0,1,0-.4-.4A.4.4,0,0,0,.4,13.6ZM.4,16a.4.4,0,1,0-.4-.4A.4.4,0,0,0,.4,16Z"/></svg>