<svg viewBox="0 0 20 20" xmlns="http://www.w3.org/2000/svg"><path d="m17.636 19.036a.89.89 0 0 1 -.21-.025 9.988 9.988 0 0 1 -4.262-2.031 11.923 11.923 0 0 1 -3.164.429c-5.514 0-10-3.688-10-8.222s4.486-8.223 10-8.223 10 3.689 10 8.222a7.389 7.389 0 0 1 -2.309 5.248 11.224 11.224 0 0 0  .765 3.378.89.89 0 0 1 -.821 1.224zm-4.236-3.051.186.175a8.832 8.832 0 0 0 4.052 1.987 12.045 12.045 0 0 1 -.843-3.871l-.009-.2.148-.14a6.551 6.551 0 0 0 2.18-4.747c0-4.043-4.087-7.333-9.111-7.333s-9.114 3.287-9.114 7.33 4.087 7.334 9.111 7.334a11.048 11.048 0 0 0 3.152-.461zm-3.634-6.033.011-4.1h-5.333v4.448h2.188a3.226 3.226 0 0 1 -1.153 1.893l.605.651a3.929 3.929 0 0 0 1.472-2.991v-.444h-2.223v-2.667h3.556v3.058a5.444 5.444 0 0 1 -2.432 3.22l.419.784a6.29 6.29 0 0 0 2.89-3.852zm6.222 0 .012-4.099h-5.333v4.447h2.188a3.226 3.226 0 0 1 -1.155 1.891l.605.651a3.929 3.929 0 0 0 1.472-2.989v-.444h-2.221v-2.667h3.556v3.058a5.444 5.444 0 0 1 -2.432 3.22l.419.784a6.29 6.29 0 0 0 2.89-3.852z"/></svg>