<svg xmlns="http://www.w3.org/2000/svg" viewBox="0 0 20 20"><title>svg_ingenieria_gestion_empresarial</title><path d="M10.118,5.37A1.472,1.472,0,1,0,8.646,3.9,1.473,1.473,0,0,0,10.118,5.37Zm0-2.371a.9.9,0,1,1-.9.9A.9.9,0,0,1,10.118,3ZM7.453,9.1a.764.764,0,0,1,.335.632v1.416a.842.842,0,0,0,.841.841h.041a1.87,1.87,0,0,0,2.9,0h.041a.842.842,0,0,0,.841-.841V9.73a.764.764,0,0,1,.335-.632,4.738,4.738,0,1,0-5.331,0Zm4.155,2.125h-.236a.382.382,0,0,0-.322.176,1.106,1.106,0,0,1-1.866,0,.382.382,0,0,0-.322-.176H8.628a.077.077,0,0,1-.076-.076v-.764h3.133v.764A.077.077,0,0,1,11.608,11.223ZM10.118,1.212a3.971,3.971,0,0,1,2.235,7.254,1.528,1.528,0,0,0-.664,1.151H8.547a1.528,1.528,0,0,0-.664-1.151,3.971,3.971,0,0,1,2.235-7.255ZM7.2,7.343V6.876a.811.811,0,0,1,.51-.755l1.25-.5a.287.287,0,0,1,.329.086l.831,1.028.831-1.028a.287.287,0,0,1,.329-.086l1.249.5a.811.811,0,0,1,.511.755v.467a.287.287,0,0,1-.573,0V6.876a.24.24,0,0,0-.151-.223l-1.052-.421-.921,1.139a.3.3,0,0,1-.446,0L8.974,6.232l-1.053.421a.24.24,0,0,0-.15.223v.467a.287.287,0,1,1-.573,0Zm6.5,6.669a2.1,2.1,0,1,0,2.1-2.1A2.1,2.1,0,0,0,13.7,14.012Zm2.1-1.337a1.337,1.337,0,1,1-1.338,1.337A1.339,1.339,0,0,1,15.8,12.675ZM4.2,16.113a2.1,2.1,0,1,0-2.1-2.1A2.1,2.1,0,0,0,4.2,16.113Zm0-3.439a1.337,1.337,0,1,1-1.338,1.337A1.339,1.339,0,0,1,4.2,12.675ZM20,18.037V19.17a.382.382,0,1,1-.764,0V18.037a.761.761,0,0,0-.48-.71l-1.3-.519L16.1,18.634a.4.4,0,0,1-.614,0l-1.353-1.826-1.3.519a.76.76,0,0,0-.48.709V19.17a.382.382,0,1,1-.764,0V18.037a1.521,1.521,0,0,1,.961-1.419l1.572-.629a.382.382,0,0,1,.449.127L15.8,17.765l1.221-1.649a.381.381,0,0,1,.449-.127l1.572.629A1.521,1.521,0,0,1,20,18.037Zm-11.594,0V19.17a.382.382,0,1,1-.764,0V18.037a.761.761,0,0,0-.48-.71l-1.3-.519L4.51,18.634a.4.4,0,0,1-.614,0L2.543,16.808l-1.3.519a.76.76,0,0,0-.48.709V19.17a.382.382,0,1,1-.764,0V18.037a1.521,1.521,0,0,1,.961-1.419l1.572-.629a.382.382,0,0,1,.449.127L4.2,17.765l1.221-1.649a.381.381,0,0,1,.449-.127l1.572.629A1.521,1.521,0,0,1,8.406,18.037Zm3.067-1.7a.381.381,0,0,1-.191-.051l-1.164-.672-1.164.672a.382.382,0,1,1-.382-.662l1.164-.672V13.606a.382.382,0,1,1,.764,0v1.343l1.164.672a.382.382,0,0,1-.191.713Z"/></svg>