<svg viewBox="0 0 20 20" xmlns="http://www.w3.org/2000/svg"><path d="m11.935 14.043a2.12 2.12 0 1 0 -2.12 2.108 2.116 2.116 0 0 0  2.12-2.108zm-3.389 0a1.269 1.269 0 1 1 1.269 1.257 1.264 1.264 0 0 1 -1.269-1.257zm4.646 4.768v1.189h-.852v-1.19c0-.72-1.549-1.262-2.553-1.262s-2.553.542-2.553 1.262v1.19h-.851v-1.19c0-1.475 2.254-2.113 3.4-2.113s3.408.638 3.408 2.113zm3.85-4.768a2.12 2.12 0 1 0 -2.12 2.108 2.116 2.116 0 0 0  2.119-2.108zm-3.389 0a1.269 1.269 0 1 1 1.268 1.257 1.264 1.264 0 0 1 -1.269-1.257zm4.647 4.767v1.19h-.851v-1.19c0-.72-1.549-1.262-2.553-1.262a4.321 4.321 0 0 0 -1.156.183l-.24-.816a5.183 5.183 0 0 1 1.4-.218c1.143.003 3.4.638 3.4 2.113zm-13.611-6.875a2.108 2.108 0 1 0 2.12 2.108 2.116 2.116 0 0 0 -2.12-2.108zm0 3.364a1.257 1.257 0 1 1 1.269-1.257 1.264 1.264 0 0 1 -1.269 1.258zm.01 1.4a5.082 5.082 0 0 1 1.388.218l-.24.816a4.3 4.3 0 0 0 -1.147-.185c-1.011 0-2.571.542-2.571 1.262v1.19h-.852v-1.19c0-1.475 2.266-2.11 3.423-2.11zm12.748-16.699h-14.894a2.13 2.13 0 0 0 -2.127 2.128v4.255a2.13 2.13 0 0 0 2.127 2.128h.847v1.7a.851.851 0 0 0 1.532.511l1.668-2.211h1.6l.776 2.328a.851.851 0 0 0 1.614 0l .776-2.328h1.608l1.659 2.212a.851.851 0 0 0 1.532-.51v-1.7h1.277a2.13 2.13 0 0 0 2.128-2.128v-4.257a2.13 2.13 0 0 0 -2.123-2.128zm1.277 6.383a1.278 1.278 0 0 1 -1.277 1.277h-2.128v2.553l-1.919-2.553h-2.643l-.97 2.91-.97-2.91h-2.647l-1.915 2.553v-2.553h-1.7a1.278 1.278 0 0 1 -1.278-1.277v-4.255a1.278 1.278 0 0 1 1.276-1.277h14.894a1.278 1.278 0 0 1 1.277 1.277z"/></svg>