<svg xmlns="http://www.w3.org/2000/svg" viewBox="0 0 20 20"><title>svg_turismo_administracion</title><path d="M6.666,4.448h0a.4.4,0,0,0,.4-.4l0-1.713h5.859V4.048a.4.4,0,1,0,.8,0v-2.5A1.554,1.554,0,0,0,12.177,0H7.824A1.554,1.554,0,0,0,6.271,1.551v.384h0l0,2.111A.4.4,0,0,0,6.666,4.448ZM7.824.8h4.352a.753.753,0,0,1,.751.736H7.073A.753.753,0,0,1,7.824.8ZM17.68,4.992H2.32A2.323,2.323,0,0,0,0,7.312V17.68A2.323,2.323,0,0,0,2.32,20H17.68A2.322,2.322,0,0,0,20,17.68V7.312A2.322,2.322,0,0,0,17.68,4.992Zm-13.709.8H16V19.2H3.971ZM.8,17.68V7.312a1.522,1.522,0,0,1,1.52-1.52h.851V19.2H2.32A1.522,1.522,0,0,1,.8,17.68Zm18.4,0a1.521,1.521,0,0,1-1.52,1.52H16.8V5.792h.88a1.521,1.521,0,0,1,1.52,1.52ZM7.662,8.15a.384.384,0,1,1-.543,0A.384.384,0,0,1,7.662,8.15Zm3.97,1.236L8.961,6.716a.3.3,0,0,0-.212-.088H5.9a.3.3,0,0,0-.3.3V9.78a.3.3,0,0,0,.088.212l2.671,2.671a.3.3,0,0,0,.424,0l2.852-2.852a.3.3,0,0,0,0-.424ZM8.569,12.026,6.2,9.655V7.228H8.624L11,9.6Z"/></svg>