<svg xmlns="http://www.w3.org/2000/svg" viewBox="0 0 20 20"><title>svg_ingenieria_gestion_minera</title><path d="M20,8.217v3.566a.371.371,0,0,1-.371.371H18.462a1.056,1.056,0,0,0-.746,1.8l.825.824a.371.371,0,0,1,0,.525l-2.521,2.521a.371.371,0,0,1-.525,0L14.669,17a1.055,1.055,0,0,0-1.8.746v1.167a.371.371,0,0,1-.371.371H10.713a.371.371,0,1,1,0-.743h1.412v-.8a1.8,1.8,0,0,1,3.069-1.271l.563.562,2-2-.563-.562a1.8,1.8,0,0,1,1.272-3.069h.8V8.588h-.8A1.8,1.8,0,0,1,17.19,5.519l.563-.563-2-2-.563.563a1.8,1.8,0,0,1-3.069-1.273V1.456H10.713a.371.371,0,0,1,0-.743H12.5a.371.371,0,0,1,.371.371V2.251a1.055,1.055,0,0,0,1.8.747l.825-.826a.382.382,0,0,1,.525,0l2.521,2.521a.371.371,0,0,1,0,.525l-.825.826a1.055,1.055,0,0,0,.746,1.8h1.167A.371.371,0,0,1,20,8.217Zm-9.287,5.822a.371.371,0,0,0,0,.743,4.829,4.829,0,0,0,0-9.658.371.371,0,0,0,0,.743,4.086,4.086,0,0,1,0,8.172ZM10,10a.712.712,0,0,1-1.319.371H5.7a18.086,18.086,0,0,0,.371,3.358.713.713,0,0,1,.455.405H9.287a.371.371,0,0,1,0,.743H6.4c-.011.012-.019.025-.03.037.659,2.178,1.733,3.629,2.919,3.629a.371.371,0,0,1,0,.743,9.29,9.29,0,0,1-8.02-4.613c-.005-.01-.012-.018-.016-.029a9.253,9.253,0,0,1,0-9.291l.011-.018A9.29,9.29,0,0,1,9.287.713a.371.371,0,0,1,0,.743c-1.174,0-2.237,1.42-2.9,3.56a.709.709,0,0,1,.081.107H9.287a.371.371,0,0,1,0,.743H6.47a.71.71,0,0,1-.382.3A18.03,18.03,0,0,0,5.7,9.629H8.681A.712.712,0,0,1,10,10ZM4.952,9.629A18.691,18.691,0,0,1,5.358,6a.725.725,0,0,1-.1-.131H1.813A8.484,8.484,0,0,0,.752,9.629ZM2.277,5.123h2.98a.712.712,0,0,1,.411-.311A8.061,8.061,0,0,1,7.325,1.686,8.565,8.565,0,0,0,2.277,5.123Zm5.047,13.19a8.171,8.171,0,0,1-1.687-3.23.707.707,0,0,1-.308-.206H2.279A8.563,8.563,0,0,0,7.324,18.313ZM4.952,10.371H.752a8.484,8.484,0,0,0,1.061,3.763H5.206a.714.714,0,0,1,.136-.208A18.7,18.7,0,0,1,4.952,10.371Z"/></svg>