<svg xmlns="http://www.w3.org/2000/svg" viewBox="0 0 20 20"><title>svg_economia_general</title><path d="M5.025,8.747V8.98a.417.417,0,0,0,.285.4l1.362.453a1.25,1.25,0,0,1,.855,1.187v.233A1.252,1.252,0,0,1,6.276,12.5v1.251H5.442V12.5a1.252,1.252,0,0,1-1.251-1.251h.834a.417.417,0,0,0,.417.417h.834a.417.417,0,0,0,.417-.417v-.233a.417.417,0,0,0-.285-.4l-1.362-.453A1.25,1.25,0,0,1,4.191,8.98V8.747A1.252,1.252,0,0,1,5.442,7.5V6.245h.834V7.5A1.252,1.252,0,0,1,7.527,8.747H6.693a.417.417,0,0,0-.417-.417H5.442A.417.417,0,0,0,5.025,8.747Zm15.011,1.259a5.814,5.814,0,0,1-5.816,5.832h-.029c-.014,0-.028,0-.042,0a5.852,5.852,0,0,1-5.774-5.826,5.8,5.8,0,0,1,5.461-5.815,2,2,0,0,1,.711,0A5.85,5.85,0,0,1,20.036,10.006ZM9.884,7.5h1.28A6.461,6.461,0,0,1,12.038,5.5,4.9,4.9,0,0,0,9.884,7.5Zm-.38,4.17h1.479a10.336,10.336,0,0,1,0-3.336H9.5A4.923,4.923,0,0,0,9.5,11.666ZM12.037,14.5a6.465,6.465,0,0,1-.874-1.995H9.89A5.043,5.043,0,0,0,12.037,14.5ZM13.782,12.5h-1.75a3.485,3.485,0,0,0,1.75,2.428Zm0-4.17H11.834a9.2,9.2,0,0,0,0,3.336h1.948Zm0-3.258A3.483,3.483,0,0,0,12.033,7.5h1.749Zm2.564.433A6.461,6.461,0,0,1,17.219,7.5h1.292A5.042,5.042,0,0,0,16.346,5.505ZM14.616,7.5H16.35a3.508,3.508,0,0,0-1.733-2.419Zm0,4.17h1.933a9.2,9.2,0,0,0,0-3.336H14.616Zm1.734.834H14.616v2.423A3.51,3.51,0,0,0,16.351,12.5Zm2.188,0H17.22a6.413,6.413,0,0,1-.9,2.038A4.907,4.907,0,0,0,18.539,12.5Zm.381-.834A4.921,4.921,0,0,0,18.9,8.33H17.4a10.336,10.336,0,0,1,0,3.336ZM5.88,15a5.018,5.018,0,0,1-5.01-5,4.979,4.979,0,0,1,4.982-5,5.016,5.016,0,0,1,3.18,1.14l.53-.643A5.849,5.849,0,0,0,5.852,4.177,5.814,5.814,0,0,0,.036,10.009,5.854,5.854,0,0,0,5.88,15.838a5.759,5.759,0,0,0,3.571-1.224l-.512-.658A4.934,4.934,0,0,1,5.88,15Z"/></svg>