<svg viewBox="0 0 20 20" xmlns="http://www.w3.org/2000/svg"><path d="m15.214 14.927h-10.463v-9.843h11a .54.54 0 0 0  .54-.54v-2.282c0-.864-.842-1.239-1.2-1.4l-.048-.019a18.161 18.161 0 0 0 -5.061-.843 18.15 18.15 0 0 0 -5.049.839c-1.045.319-1.264.95-1.264 1.423v15.477c0 .865.874 1.254 1.2 1.4a.493.493 0 0 0  .049.019 18.181 18.181 0 0 0  5.064.842 18.169 18.169 0 0 0  5.049-.838c1.044-.32 1.264-.951 1.264-1.423v-2.227h0c0-.015 0-.029 0-.044v-6.893h-1.08zm-10.464-12.665c0-.071 0-.237.512-.394a17.364 17.364 0 0 1 4.72-.788 17.333 17.333 0 0 1  4.7.78c.356.161.536.3.536.4v1.74h-10.468zm9.95 15.871a17.336 17.336 0 0 1 -4.72.787 17.342 17.342 0 0 1 -4.7-.779c-.356-.161-.536-.3-.536-.4v-1.733h10.47v1.731c0 .071 0 .237-.514.394zm-2.454-.812a.54.54 0 0 1 -.54.54h-3.45a.54.54 0 0 1 0-1.08h3.451a.54.54 0 0 1  .541.54zm2.154-10.993a1.409 1.409 0 0 0 -1.292.939l-.139.427a1.089 1.089 0 0 0 -.211-.023h-5.519a.909.909 0 0 0 -.875 1.279l.762 1.961a1.477 1.477 0 0 0 1.314.9h3.3a1.413 1.413 0 0 0 1.293-.937l.135-.412h0l .009-.028.492-1.5c0-.013 0-.025.008-.038l.424-1.3a.38.38 0 0 1  .294-.214h1.932v-1.054zm-2.359 4.218a.384.384 0 0 1 -.3.215h-3.301a.441.441 0 0 1 -.336-.23l-.704-1.811h5.233l-.46 1.416h0zm-3.62 3.128a.682.682 0 1 1  .682-.682.682.682 0 0 1 -.684.681zm3.184 0a .682.682 0 1 1  .682-.682.682.682 0 0 1 -.687.681z"/></svg>