<svg xmlns="http://www.w3.org/2000/svg" viewBox="0 0 20 20"><title>svg_contabilidad_administracion</title><path d="M19.545,5.909H.455A.454.454,0,0,1,0,5.455V1.364A1.365,1.365,0,0,1,1.364,0H18.636A1.365,1.365,0,0,1,20,1.364V5.455A.454.454,0,0,1,19.545,5.909ZM.909,5H19.091V1.364a.455.455,0,0,0-.455-.455H1.364a.455.455,0,0,0-.455.455Zm3.182,5.909H.455A.454.454,0,0,1,0,10.455V7.727a.454.454,0,0,1,.455-.455H4.091a.454.454,0,0,1,.455.455v2.727A.454.454,0,0,1,4.091,10.909ZM.909,10H3.636V8.182H.909Zm18.636.909H15.909a.454.454,0,0,1-.455-.455V7.727a.454.454,0,0,1,.455-.455h3.636A.454.454,0,0,1,20,7.727v2.727A.454.454,0,0,1,19.545,10.909ZM16.364,10h2.727V8.182H16.364Zm-2.727.909H6.364a.454.454,0,0,1-.455-.455V7.727a.454.454,0,0,1,.455-.455h7.273a.454.454,0,0,1,.455.455v2.727A.454.454,0,0,1,13.636,10.909ZM6.818,10h6.364V8.182H6.818ZM4.091,15.455H.455A.454.454,0,0,1,0,15V12.273a.454.454,0,0,1,.455-.455H4.091a.454.454,0,0,1,.455.455V15A.454.454,0,0,1,4.091,15.455ZM.909,14.545H3.636V12.727H.909Zm18.636.909H15.909A.454.454,0,0,1,15.455,15V12.273a.454.454,0,0,1,.455-.455h3.636a.454.454,0,0,1,.455.455V15A.454.454,0,0,1,19.545,15.455Zm-3.182-.909h2.727V12.727H16.364Zm-2.727.909H6.364A.454.454,0,0,1,5.909,15V12.273a.454.454,0,0,1,.455-.455h7.273a.454.454,0,0,1,.455.455V15A.454.454,0,0,1,13.636,15.455Zm-6.818-.909h6.364V12.727H6.818ZM4.091,20H1.364A1.365,1.365,0,0,1,0,18.636V16.818a.454.454,0,0,1,.455-.455H4.091a.454.454,0,0,1,.455.455v2.727A.454.454,0,0,1,4.091,20ZM.909,17.273v1.364a.455.455,0,0,0,.455.455H3.636V17.273ZM18.636,20H15.909a.454.454,0,0,1-.455-.455V16.818a.454.454,0,0,1,.455-.455h3.636a.454.454,0,0,1,.455.455v1.818A1.365,1.365,0,0,1,18.636,20Zm-2.273-.909h2.273a.455.455,0,0,0,.455-.455V17.273H16.364ZM13.636,20H6.364a.454.454,0,0,1-.455-.455V16.818a.454.454,0,0,1,.455-.455h7.273a.454.454,0,0,1,.455.455v2.727A.454.454,0,0,1,13.636,20Zm-6.818-.909h6.364V17.273H6.818Z"/></svg>