<svg viewBox="0 0 20 20" xmlns="http://www.w3.org/2000/svg"><path d="m19.969 8.688a1.246 1.246 0 0 0 -.057-.73l-2.277-6.027a1.874 1.874 0 0 0 -1.676-1.158h-11.919a1.874 1.874 0 0 0 -1.676 1.158l-2.277 6.028a1.24 1.24 0 0 0 -.051.747 2.938 2.938 0 0 0  2.123 2.6v5.942a1.978 1.978 0 0 0 1.976 1.976h11.73a1.978 1.978 0 0 0 1.976-1.976v-5.94a2.937 2.937 0 0 0 2.128-2.62zm-10.554-6.741v5.6h-3.3l.979-5.6zm3.487 0 .984 5.6h-3.294v-5.6zm-3.502 6.771a1.758 1.758 0 0 1 -3.487 0zm4.7 0a1.759 1.759 0 0 1 -3.488 0zm2.443-6.372 1.964 5.2h-3.429l-.984-5.6h1.865a.717.717 0 0 1  .577.4zm-13.074 0a .716.716 0 0 1  .577-.4h1.863l-.979 5.6h-3.43zm-2.253 6.372h3.484a1.759 1.759 0 0 1 -3.488 0zm14.649 9.335h-11.731a.8.8 0 0 1 -.8-.8v-5.853a2.931 2.931 0 0 0 1.975-1.155 2.924 2.924 0 0 0  4.7 0 2.924 2.924 0 0 0  4.7 0 2.933 2.933 0 0 0  1.957 1.155v5.855a.8.8 0 0 1 -.801.798zm1.18-7.8a1.762 1.762 0 0 1 -1.745-1.535h3.487a1.762 1.762 0 0 1 -1.742 1.532z"/></svg>