<svg xmlns="http://www.w3.org/2000/svg" viewBox="0 0 20 20"><title>svg_hoteleria_administracion</title><path d="M20,9.454a4.909,4.909,0,1,0-7.091,4.391v5.245a.364.364,0,0,0,.591.284L15.091,18.1l1.591,1.273a.364.364,0,0,0,.591-.284V13.845A4.91,4.91,0,0,0,20,9.454Zm-3.455,8.88-1.091-.873V15.919a.364.364,0,1,0-.727,0v1.542l-1.091.873V14.143a4.915,4.915,0,0,0,2.909,0Zm-1.455-4.7a4.182,4.182,0,1,1,4.182-4.182A4.187,4.187,0,0,1,15.091,13.636Z"/><path d="M17.4,8.666l-1.524-.055-.523-1.433a.273.273,0,0,0-.512,0l-.523,1.433-1.525.055a.273.273,0,0,0-.158.488l1.2.94-.419,1.467a.273.273,0,0,0,.414.3l1.266-.851,1.265.851a.271.271,0,0,0,.152.047h.007a.273.273,0,0,0,.239-.4l-.4-1.41,1.2-.94a.273.273,0,0,0-.158-.487ZM15.873,9.778a.274.274,0,0,0-.094.29l.264.926-.8-.537a.273.273,0,0,0-.3,0l-.8.537.265-.926a.272.272,0,0,0-.094-.29l-.757-.593.962-.034a.273.273,0,0,0,.246-.179l.33-.9.33.9a.273.273,0,0,0,.246.179l.962.034Z"/><path d="M11.818,15.091H1.455a.728.728,0,0,1-.727-.727V2a.728.728,0,0,1,.727-.727h16A.728.728,0,0,1,18.182,2V4.909a.364.364,0,1,0,.727,0V2A1.456,1.456,0,0,0,17.455.545h-16A1.456,1.456,0,0,0,0,2V14.364a1.456,1.456,0,0,0,1.455,1.455H11.818a.364.364,0,0,0,0-.727Z"/><path d="M10.909,4.182a.273.273,0,0,0-.273-.273H3.545a.273.273,0,0,0,0,.545h7.091A.273.273,0,0,0,10.909,4.182Z"/><path d="M8.818,5.727H3.545a.273.273,0,0,0,0,.545H8.818a.273.273,0,0,0,0-.545Z"/><path d="M9.091,7.818a.273.273,0,0,0-.273-.273H3.545a.273.273,0,0,0,0,.545H8.818A.273.273,0,0,0,9.091,7.818Z"/><path d="M5.68,11.891a1.235,1.235,0,0,0-.7.206.642.642,0,0,0-.086.733c.086.217.256.443.482.443h.023c.2-.013.343-.189.425-.522l.076-.3c.019-.073.037-.146.056-.219.2,0,.4.02.544.032l.161.012c.1.006.218.013.247.065a.272.272,0,0,1,.006.078.493.493,0,0,0,.031.2.171.171,0,0,0,.184.1,1.9,1.9,0,0,0,.458-.145.823.823,0,0,1,.592-.094.173.173,0,0,0,.1-.33,1.143,1.143,0,0,0-.826.106c-.067.028-.132.055-.2.077A.4.4,0,0,0,7.2,12.17a.584.584,0,0,0-.527-.24l-.152-.012c-.161-.013-.326-.026-.488-.03A9.329,9.329,0,0,0,6.3,10.319L6.3,10.23c.011-.134.02-.25-.078-.33a.364.364,0,0,0-.341-.014,2.432,2.432,0,0,0-.919.691l-.087.09a8.6,8.6,0,0,0-.961,1.2c-.158.224-.331.491-.47.706L3.3,12.8a.173.173,0,0,0,.288.19l.149-.23c.137-.212.308-.476.462-.694a8.233,8.233,0,0,1,.925-1.161l.089-.092a2.318,2.318,0,0,1,.744-.592l-.006.072A9.279,9.279,0,0,1,5.68,11.891Zm-.118.474-.076.3a.574.574,0,0,1-.111.261.5.5,0,0,1-.193-.315c-.033-.128-.018-.224.013-.249a.781.781,0,0,1,.4-.122Z"/></svg>