<svg xmlns="http://www.w3.org/2000/svg" viewBox="0 0 20 20"><title>svg_ingenieria_industrial</title><path d="M10,3.636A6.364,6.364,0,1,0,16.364,10,6.371,6.371,0,0,0,10,3.636ZM7.673,5.074A7.369,7.369,0,0,0,6.6,7.727H5.048A5.48,5.48,0,0,1,7.673,5.074ZM4.545,10a5.429,5.429,0,0,1,.179-1.364H6.446A11.415,11.415,0,0,0,6.364,10a11.2,11.2,0,0,0,.147,1.818H4.864A5.419,5.419,0,0,1,4.545,10Zm.738,2.727H6.707a7.031,7.031,0,0,0,.966,2.2A5.483,5.483,0,0,1,5.283,12.727Zm4.262,2.642a3.813,3.813,0,0,1-1.891-2.642H9.545Zm0-3.551H7.438A10.089,10.089,0,0,1,7.273,10a10.229,10.229,0,0,1,.094-1.364H9.545Zm0-4.091H7.533c.377-1.591,1.129-2.785,2.012-3.1Zm.909-3.1c.883.312,1.635,1.506,2.012,3.1H10.455Zm0,4.005h2.179A10.229,10.229,0,0,1,12.727,10a10.089,10.089,0,0,1-.166,1.818H10.455Zm0,6.733V12.727h1.891A3.813,3.813,0,0,1,10.455,15.369Zm1.873-.443a7.031,7.031,0,0,0,.966-2.2h1.423A5.483,5.483,0,0,1,12.327,14.926ZM15.455,10a5.419,5.419,0,0,1-.318,1.818H13.489A11.2,11.2,0,0,0,13.636,10a11.415,11.415,0,0,0-.082-1.364h1.721A5.429,5.429,0,0,1,15.455,10ZM13.4,7.727a7.369,7.369,0,0,0-1.074-2.653,5.48,5.48,0,0,1,2.625,2.653Zm6.144.909h-1.02a8.61,8.61,0,0,0-.46-1.718l.883-.51a.455.455,0,0,0,.166-.621l-.909-1.575a.455.455,0,0,0-.621-.166L16.7,4.56A8.655,8.655,0,0,0,15.44,3.3l.514-.889a.454.454,0,0,0-.166-.621L14.213.885a.455.455,0,0,0-.621.166l-.51.883a8.61,8.61,0,0,0-1.718-.46V.455A.454.454,0,0,0,10.909,0H9.091a.454.454,0,0,0-.455.455v1.02a8.61,8.61,0,0,0-1.718.46l-.51-.883A.455.455,0,0,0,5.787.885l-1.574.909a.454.454,0,0,0-.166.621L4.56,3.3A8.655,8.655,0,0,0,3.3,4.56l-.889-.514a.455.455,0,0,0-.621.166L.885,5.787a.455.455,0,0,0,.166.621l.883.51a8.61,8.61,0,0,0-.46,1.718H.455A.454.454,0,0,0,0,9.091v1.818a.454.454,0,0,0,.455.455h1.02a8.61,8.61,0,0,0,.46,1.718l-.883.51a.455.455,0,0,0-.166.621l.909,1.575a.455.455,0,0,0,.621.166L3.3,15.44A8.675,8.675,0,0,0,4.56,16.7l-.513.889a.454.454,0,0,0,.166.621l1.574.909a.463.463,0,0,0,.345.045.455.455,0,0,0,.276-.212l.51-.883a8.61,8.61,0,0,0,1.718.46v1.02A.454.454,0,0,0,9.091,20h1.818a.454.454,0,0,0,.455-.455v-1.02a8.61,8.61,0,0,0,1.718-.46l.51.883a.455.455,0,0,0,.276.212.464.464,0,0,0,.345-.045l1.574-.909a.454.454,0,0,0,.166-.621L15.44,16.7A8.694,8.694,0,0,0,16.7,15.441l.889.513a.455.455,0,0,0,.621-.166l.909-1.575a.455.455,0,0,0-.166-.621l-.883-.51a8.61,8.61,0,0,0,.46-1.718h1.02A.454.454,0,0,0,20,10.909V9.091A.454.454,0,0,0,19.545,8.636Zm-.455,1.818h-.962a.455.455,0,0,0-.452.4,7.667,7.667,0,0,1-.6,2.236.455.455,0,0,0,.189.576l.833.481-.455.787-.839-.484a.454.454,0,0,0-.593.124,7.74,7.74,0,0,1-1.635,1.635.455.455,0,0,0-.124.593l.484.839-.787.455-.481-.833a.455.455,0,0,0-.576-.189,7.679,7.679,0,0,1-2.236.6.455.455,0,0,0-.4.452v.962H9.545v-.962a.455.455,0,0,0-.4-.452,7.667,7.667,0,0,1-2.236-.6.455.455,0,0,0-.576.189l-.481.833-.787-.455.484-.839a.455.455,0,0,0-.124-.593,7.773,7.773,0,0,1-1.636-1.635.454.454,0,0,0-.593-.124l-.839.484L1.9,14.152l.833-.481a.455.455,0,0,0,.189-.576,7.667,7.667,0,0,1-.6-2.236.455.455,0,0,0-.452-.4H.909V9.545h.962a.455.455,0,0,0,.452-.4,7.667,7.667,0,0,1,.6-2.236.455.455,0,0,0-.189-.576L1.9,5.848l.455-.787.839.484a.454.454,0,0,0,.593-.124A7.773,7.773,0,0,1,5.422,3.786a.455.455,0,0,0,.124-.593l-.484-.839L5.848,1.9l.481.833a.456.456,0,0,0,.576.189,7.667,7.667,0,0,1,2.236-.6.455.455,0,0,0,.4-.452V.909h.909v.962a.455.455,0,0,0,.4.452,7.679,7.679,0,0,1,2.236.6.456.456,0,0,0,.576-.189l.481-.833.787.455-.484.839a.455.455,0,0,0,.124.593,7.75,7.75,0,0,1,1.635,1.635.454.454,0,0,0,.593.124l.839-.484.455.787-.833.481a.455.455,0,0,0-.189.576,7.667,7.667,0,0,1,.6,2.236.455.455,0,0,0,.452.4h.962Z"/></svg>