<svg viewBox="0 0 20 20" xmlns="http://www.w3.org/2000/svg"><path d="m19.685 10.226-2.366-.6a.418.418 0 0 0 -.158-.009 2.521 2.521 0 0 0 -.749-1.417v-3.446a2.523 2.523 0 1 0 -3.695-3.421h0l-8.252 3.086a.417.417 0 0 0 -.1.056 3.442 3.442 0 0 0 -3.548 5.544l-.717 9.514.833.063.667-8.896a3.433 3.433 0 0 0 3.709-.017l.642 8.907.833-.06-.684-9.542a3.441 3.441 0 0 0  .749-2.725l6.084-2.3v3.237a2.521 2.521 0 0 0 -.75 1.412.416.416 0 0 0 -.158.009l-2.249.579h-.008l-.1.023-.035.01a.418.418 0 0 0 -.289.4v3.083a.417.417 0 0 0  .019.144l1.533 4.8v.012l.2.63a.418.418 0 0 0  .4.291h1.514a.418.418 0 0 0  .418-.418v-5.026h2.489v5.021a.418.418 0 0 0  .418.418h1.511a.418.418 0 0 0  .4-.291l1.732-5.421a.418.418 0 0 0  .022-.144v-3.1a.418.418 0 0 0 -.315-.406zm-5.013-1.885a1.689 1.689 0 1 1 -1.689 1.689 1.691 1.691 0 0 1  1.689-1.689zm0-7.1a1.689 1.689 0 1 1 -1.689 1.689 1.691 1.691 0 0 1  1.689-1.69zm-13.837 6.554a2.609 2.609 0 1 1 2.61 2.605 2.612 2.612 0 0 1 -2.61-2.605zm4.565-2.834 6.8-2.542a2.523 2.523 0 0 0  .312 1.814l-5.893 2.223a3.466 3.466 0 0 0 -1.219-1.495zm8.367.324a2.516 2.516 0 0 0 1.81 0v2.39a2.516 2.516 0 0 0 -1.81 0zm5.4 8.381-1.625 5.087h-.788v-5.021a.418.418 0 0 0 -.418-.418h-3.326a.418.418 0 0 0 -.418.418v5.021h-.792l-.1-.329v-.012l-1.516-4.745v-2.71l2-.511a2.524 2.524 0 0 0 4.978 0l2 .509zm-4.495-2.366a1.271 1.271 0 1 0 -1.272-1.27 1.272 1.272 0 0 0  1.272 1.27zm0-1.706a.435.435 0 1 1 -.435.435.436.436 0 0 1  .435-.435zm0-5.4a1.271 1.271 0 1 0 -1.272-1.266 1.272 1.272 0 0 0  1.272 1.272zm0-1.706a.435.435 0 1 1 -.435.435.436.436 0 0 1  .435-.43zm-11.244 4.036a1.271 1.271 0 1 0 1.272 1.27 1.272 1.272 0 0 0 -1.272-1.27zm0 1.706a.435.435 0 1 1  .435-.435.436.436 0 0 1 -.435.434z"/></svg>