<svg xmlns="http://www.w3.org/2000/svg" viewBox="0 0 20 20"><title>svg_comunicacion_periodismo</title><path d="M10.417,11.06v-.833H5.833A.834.834,0,0,1,5,9.393V4.81H4.167V9.393A1.668,1.668,0,0,0,5.833,11.06h.833v1.667H7.5V11.06Z"/><path d="M18.333,6.476h-.417V2.31A1.668,1.668,0,0,0,16.25.643H5.833A1.668,1.668,0,0,0,4.167,2.31V3.56h-2.5A1.668,1.668,0,0,0,0,5.226V12.31a1.668,1.668,0,0,0,1.667,1.667v1.462a.83.83,0,0,0,.522.774.83.83,0,0,0,.913-.2l1.949-2.038H6.667v1.25a1.668,1.668,0,0,0,1.667,1.667H12.9l2.832,2.279a.833.833,0,0,0,1.356-.649v-1.63h1.25A1.668,1.668,0,0,0,20,15.226V8.143A1.668,1.668,0,0,0,18.333,6.476ZM5,2.31a.834.834,0,0,1,.833-.833H16.25a.834.834,0,0,1,.833.833V6.476H11.667V5.226A1.668,1.668,0,0,0,10,3.56H5ZM4.7,13.143,2.5,15.438V13.143H1.667a.834.834,0,0,1-.833-.833V5.226a.834.834,0,0,1,.833-.833H10a.834.834,0,0,1,.833.833V12.31a.834.834,0,0,1-.833.833Zm14.471,2.083a.834.834,0,0,1-.833.833H16.25v2.463L13.19,16.06H8.333a.834.834,0,0,1-.833-.833v-1.25H10a1.668,1.668,0,0,0,1.667-1.667V11.06h.645l2.1,2.089a.833.833,0,0,0,1.421-.591v-1.5h.417a1.668,1.668,0,0,0,1.667-1.667V7.726h-.833V9.393a.834.834,0,0,1-.833.833H15v2.332l-2.345-2.332h-.988V7.31h6.667a.834.834,0,0,1,.833.833Z"/><path d="M7.5,8.143a.834.834,0,0,1,.833-.833h2.083V6.476H8.333A1.668,1.668,0,0,0,6.667,8.143V9.81H7.5Z"/></svg>